<svg width="1920" height="1500" viewBox="0 0 1920 1500" fill="none" xmlns="http://www.w3.org/2000/svg">
<g clip-path="url(#clip0_35_652)">
<mask id="mask0_35_652" style="mask-type:alpha" maskUnits="userSpaceOnUse" x="-187" y="202" width="739" height="710">
<path d="M-186.671 670.793C-185.937 712.727 113.224 914.384 280.419 911.458C447.614 908.532 552.124 742.306 551.39 700.373C550.657 658.439 281.929 586.642 114.734 589.568C-52.4613 592.494 -187.405 628.859 -186.671 670.793Z" fill="#2C2D30"/>
<mask id="mask1_35_652" style="mask-type:alpha" maskUnits="userSpaceOnUse" x="60" y="293" width="386" height="520">
<path d="M188.741 404.704L213.413 446.878L272.311 467.867L273.863 483.123C273.863 483.123 215.842 480.993 195.874 471.903C182.162 465.66 153.692 414.144 153.692 414.144" fill="#FCFCFC"/>
<path d="M167.033 372.578C167.033 372.578 178.285 381.932 187.082 395.925C193.08 405.463 202.326 426.676 202.326 426.676L167.868 446.867L140.72 402.997" fill="#FCFCFC"/>
<path d="M164.867 739.899L161.301 789.813C161.301 789.813 190.221 809.18 190.221 809.49C190.221 809.798 166.589 810.65 166.589 810.65L156.131 805.539H138.8C137.602 805.539 136.716 804.426 136.98 803.26L139.11 793.932L138.325 754.025" fill="#FCFCFC"/>
<path d="M188.517 805.992C184.794 803.83 171.951 795.727 171.951 795.727L156.204 805.535H136.459V812.816H156.825V808.448H158.608C159.06 808.448 159.499 808.595 159.86 808.867L164.332 812.222C164.847 812.608 165.472 812.816 166.115 812.816H190.218C193.472 812.816 194.199 809.297 188.517 805.992Z" fill="#FCFCFC"/>
<path d="M150.947 806.908L137.827 798.814L138.531 795.73L152.766 805.559L150.947 806.908Z" fill="#FCFCFC"/>
<path d="M177.771 484.298C177.771 484.298 190.631 504.405 190.631 563.272C190.631 603.596 176.833 776.053 176.833 776.053H128.669C128.669 776.053 127.485 604.613 127.485 583.809C127.485 542.519 117.621 511.03 122.292 489.781" fill="#FCFCFC"/>
<path d="M177.926 766.305H128.927" stroke="#FCFCFC" stroke-miterlimit="10"/>
<path d="M97.1752 739.899L93.6115 789.813C93.6115 789.813 122.529 809.18 122.529 809.49C122.529 809.798 98.8981 810.65 98.8981 810.65L88.4384 805.539H71.1072C69.9107 805.539 69.0244 804.426 69.2891 803.26L71.4173 793.932L70.6323 754.025" fill="#FCFCFC"/>
<path d="M120.827 805.992C117.105 803.83 104.261 795.727 104.261 795.727L88.515 805.535H68.7697V812.816H89.1352V808.448H90.9186C91.3708 808.448 91.8095 808.595 92.171 808.867L96.6422 812.222C97.1565 812.608 97.7827 812.816 98.4255 812.816H122.529C125.782 812.816 126.51 809.297 120.827 805.992Z" fill="#FCFCFC"/>
<path d="M83.2537 806.908L70.1319 798.814L70.8353 795.73L85.0703 805.559L83.2537 806.908Z" fill="#FCFCFC"/>
<path d="M146.961 493.691L105.933 776.053H60.716C60.716 776.053 67.0235 573.591 73.0391 546.51C83.1568 500.947 94.9142 493.637 100.968 483.633" fill="#FCFCFC"/>
<path d="M127.697 626.275C127.697 626.275 139.34 537.905 146.961 484.04" stroke="#FCFCFC" stroke-miterlimit="10"/>
<path d="M155.836 486.021C155.836 486.021 151.073 511.545 148.892 513.726C146.712 515.906 141.949 518.318 141.949 518.318" stroke="#FCFCFC" stroke-miterlimit="10"/>
<path d="M121.037 486.02C121.037 486.02 112.358 502.695 93.632 505.771" stroke="#FCFCFC" stroke-miterlimit="10"/>
<path d="M184.318 502.168C184.318 502.168 168.902 502.352 165.458 487.063" stroke="#FCFCFC" stroke-miterlimit="10"/>
<path d="M107.543 766.305H61.3015" stroke="#FCFCFC" stroke-miterlimit="10"/>
<path d="M64.9318 775.273C64.9318 775.273 66.4384 635.103 78.6677 552.741C83.8922 517.554 99.5626 493.747 109.133 481.45" stroke="#FCFCFC" stroke-miterlimit="10"/>
<path d="M131.676 598.874L134.287 776.053" stroke="#FCFCFC" stroke-miterlimit="10"/>
<path d="M173.682 388.886C184.434 404.463 193.99 414.165 180.702 437.457C177.957 469.288 178.205 484.794 178.205 484.794C178.205 484.794 149.485 498.36 100.966 483.628C100.966 483.628 81.7059 410.334 87.7729 404.463C93.8399 398.593 148.249 357.785 148.249 357.785L169.029 374.37L173.682 388.886Z" fill="#FCFCFC"/>
<path d="M103.544 489.028L160.133 502.344L177.965 426.558L121.376 413.243L103.544 489.028Z" fill="#FCFCFC"/>
<path d="M133.627 418.479L163.359 425.477L164.09 422.371C164.356 421.24 163.654 420.108 162.525 419.842L136.886 413.81C135.755 413.544 134.623 414.244 134.357 415.375L133.627 418.479Z" fill="#FCFCFC"/>
<path d="M149.832 416.317C151.006 416.592 152.163 415.934 152.419 414.848C152.674 413.761 151.932 412.655 150.759 412.38C149.586 412.103 148.429 412.761 148.173 413.847C147.916 414.934 148.66 416.04 149.832 416.317ZM151.274 410.191C153.75 410.775 155.318 413.107 154.778 415.403C154.24 417.698 151.794 419.086 149.318 418.504C146.842 417.92 145.272 415.588 145.812 413.293C146.353 410.997 148.798 409.608 151.274 410.191Z" fill="#FCFCFC"/>
<path d="M144.732 459.813C144.732 459.813 156.633 456.606 160.641 455.426C162.467 454.889 164.452 454.28 166.37 454.24C166.917 454.228 167.76 454.194 167.775 454.962C167.79 455.776 166.096 456.75 165.545 457.225C165.364 457.379 165.184 457.565 165.152 457.803C165.113 458.099 165.333 458.38 165.604 458.51C165.875 458.639 166.185 458.651 166.483 458.659C167.779 458.695 169.073 458.733 170.363 458.709C170.511 458.017 170.661 457.325 170.809 456.632C171.883 457.036 172.635 458.084 172.874 459.206C173.267 461.052 171.508 462.059 170.059 462.537C170.688 462.525 172.127 463.398 172.142 464.028C172.158 464.659 171.751 465.248 171.213 465.58C170.677 465.912 168.865 466.182 168.865 466.182C168.865 466.182 170.856 466.421 170.924 467.483C170.945 467.828 170.93 468.186 170.776 468.497C170.514 469.023 169.923 469.291 169.363 469.475C168.354 469.808 167.725 470.071 167.725 470.071C167.725 470.071 168.628 470.319 168.628 471.603C168.628 472.594 167.601 473.514 166.215 473.804C162.658 474.548 159.595 474.921 155.986 475.33C153.513 475.61 148.137 475.703 145.935 475.33" fill="#FCFCFC"/>
<path d="M83.734 402.003C83.734 402.003 58.6174 465.22 71.8586 481.449C85.1013 497.676 152.92 473.549 152.92 473.549L147.225 459.973L102.029 457.055L114.169 411.607" fill="#FCFCFC"/>
<path d="M144.73 363.297C144.73 363.297 114.132 364.497 97.4423 376.691C80.7509 388.889 69.6787 429.55 69.6787 429.55L110.455 442.008L118.991 407.126" fill="#FCFCFC"/>
<path d="M110.458 442.008L118.275 410.06" stroke="#FCFCFC" stroke-miterlimit="10"/>
<path d="M186.373 410.939C186.373 410.939 182.888 400.087 174.664 390.323C170.225 385.05 171.084 378.803 171.084 378.803" stroke="#FCFCFC" stroke-miterlimit="10"/>
<path d="M142.079 345.083L136.563 365.376C136.563 365.376 137.959 373.442 148.42 374.535C155.883 375.316 155.918 367.778 155.918 367.778L155.133 346.449" fill="#FCFCFC"/>
<path d="M158.402 316.619C168.482 325.636 178.388 350.052 163.483 353.818C151.63 356.815 141.139 349.783 137.56 340.312C132.275 326.333 148.324 307.601 158.402 316.619Z" fill="#FCFCFC"/>
<path d="M155.426 354.369C155.426 354.369 150.602 353.868 144.851 349.85" stroke="#FCFCFC" stroke-miterlimit="10" stroke-linejoin="round"/>
<path d="M165.611 328.807C165.611 328.807 173.652 335.864 173.162 337.194C172.353 339.392 169.149 339.57 169.149 339.57" fill="#FCFCFC"/>
<path d="M161.451 344.25L169.062 341.037C169.062 341.037 170.426 347.211 167.94 348.309C163.112 350.441 161.451 344.25 161.451 344.25Z" fill="#FCFCFC"/>
<path d="M125.997 310.995C131.764 305.419 138.444 304.991 145.925 307.221C146.53 307.401 147.166 307.599 147.778 307.455C148.2 307.354 148.566 307.1 148.95 306.897C150.87 305.884 153.195 306.168 155.321 306.595C158.238 307.177 161.213 308.028 163.477 309.954C165.73 311.869 167.091 314.794 167.101 317.751C167.115 320.657 165.663 322.466 163.216 323.766C162.145 324.334 156.041 326.366 155.258 324.529C155.873 325.971 155.157 327.719 153.939 328.707C152.721 329.695 151.119 330.065 149.563 330.255C149.109 330.31 148.625 330.363 148.268 330.651C147.926 330.928 147.768 331.366 147.636 331.785C146.627 335.001 147.001 338.392 146.822 341.705C146.666 344.6 145.763 347.605 147.096 350.355C149.002 354.287 152.196 358.54 148.147 362.459C146.641 363.917 144.691 365.188 144.202 367.228C143.817 368.836 144.447 370.638 143.724 372.125C142.982 373.657 141.13 374.23 139.48 374.642C134.962 375.773 130.383 376.883 125.726 376.865C121.07 376.845 116.257 375.582 112.784 372.48C111.297 371.152 110.024 369.282 110.295 367.305C110.503 365.772 111.612 364.45 111.698 362.904C111.806 361.046 110.437 359.46 109.892 357.681C108.482 353.07 112.653 350.062 112.445 345.805C112.344 343.745 111.116 341.882 110.93 339.829C110.561 335.775 114.185 333.116 116.036 329.935C117.048 328.193 118.36 326.585 119.119 324.712C120.002 322.531 120.213 320.138 121.169 317.981C122.314 315.398 123.965 312.96 125.997 310.995Z" fill="#FCFCFC"/>
<path d="M151.371 339.148C149.728 337.222 147.313 337.783 146.316 338.456C143.909 340.081 143.933 343.505 145.204 346.118C146.629 349.046 148.727 349.613 150.241 349.427C151.755 349.241 152.791 347.297 152.421 344.972" fill="#FCFCFC"/>
<path d="M269.295 467.789C274.04 468.275 285.301 466.594 290.047 467.078C292.844 467.364 297.716 468.114 297.825 469.158C298.108 471.841 290.271 469.438 290.415 470.799C290.501 471.625 296.567 472.082 299.678 472.327C302.454 472.548 306.16 473.159 306.405 474.605C306.719 476.462 291.162 475.133 291.162 475.133C291.162 475.133 307.436 477.098 307.601 478.672C307.838 480.943 291.462 478.994 291.462 478.994C291.462 478.994 305.297 480.875 305.473 482.553C305.648 484.234 295.538 482.644 291.286 482.573C294.277 483.216 302.231 484.21 302.36 485.435C302.488 486.659 296.465 486.598 294.991 486.444C286.083 485.506 268.727 482.166 268.727 482.166" fill="#FCFCFC"/>
<path d="M268.775 528.061C268.775 528.994 267.558 542.71 267.558 542.71L293.409 548.328L295.17 535.824" fill="#FCFCFC"/>
<path d="M328.045 354.39C328.045 354.39 285.273 363.556 279.733 374.595C269.541 394.905 271.429 439.346 269.747 454.241C267.098 477.69 265.197 535.349 265.197 535.349L298.195 541.047C298.195 541.047 309.218 487.973 311.599 467.567C313.997 447.006 318.298 385.037 318.298 385.037" fill="#FCFCFC"/>
<path d="M341.51 749.567L338.76 792.137L338.911 807.052L287.766 810.711C286.353 810.711 285.86 806.145 286.846 805.764L318.555 792.283L314.427 752.801" fill="#FCFCFC"/>
<path d="M340.522 794.459C340.522 794.459 340.925 790.993 339.292 790.993C337.658 790.993 337.543 792.549 335.863 792.991C332.658 793.83 325.586 793.078 319.323 790.895C318.556 790.628 318.702 787.666 316.4 787.666C314.097 787.666 314.576 791.217 312.164 792.348C309.749 793.479 290.801 802.985 285.661 805.203C281.305 807.082 278.357 812.82 285.984 812.82H341.676C342.334 812.82 342.869 812.287 342.869 811.627V808.236C342.151 800.816 340.522 794.459 340.522 794.459Z" fill="#FCFCFC"/>
<path d="M342.869 809.64H281.276V811.662C281.276 812.301 281.797 812.82 282.437 812.82H342.869V809.64Z" fill="#FCFCFC"/>
<path d="M304.805 795.999C305.498 796.413 306.165 796.905 306.736 797.477C307.015 797.754 307.275 798.044 307.52 798.352C307.785 798.685 308.116 799.112 308.125 799.557C308.131 799.845 307.819 799.983 307.582 799.867C307.391 799.773 307.266 799.61 307.127 799.454C307.068 799.387 307.015 799.318 306.957 799.248C306.922 799.205 306.886 799.16 306.851 799.117C306.86 799.126 306.745 798.976 306.794 799.04C306.561 798.737 306.307 798.448 306.041 798.173C305.52 797.639 304.976 797.149 304.374 796.734C304.185 796.603 304.1 796.361 304.222 796.152C304.337 795.956 304.607 795.881 304.805 795.999Z" fill="#FCFCFC"/>
<path d="M307.428 793.687C308.346 794.305 309.191 795.002 309.921 795.836C310.284 796.249 310.623 796.68 310.942 797.128C311.264 797.577 311.617 798.102 311.698 798.655C311.748 798.992 311.393 799.241 311.115 798.994C310.727 798.649 310.46 798.154 310.183 797.716C309.903 797.271 309.599 796.839 309.272 796.427C308.613 795.6 307.899 794.801 307.121 794.086C306.911 793.892 307.188 793.523 307.428 793.687Z" fill="#FCFCFC"/>
<path d="M413.796 749.567L418.806 792.137L418.957 807.052L367.812 810.711C366.399 810.711 365.906 806.145 366.892 805.764L398.601 792.283L386.713 752.801" fill="#FCFCFC"/>
<path d="M420.567 794.459C420.567 794.459 420.97 790.993 419.337 790.993C417.703 790.993 417.588 792.549 415.908 792.991C412.703 793.83 405.631 793.078 399.368 790.895C398.601 790.628 398.747 787.666 396.445 787.666C394.142 787.666 394.62 791.217 392.208 792.348C389.794 793.479 370.846 802.985 365.706 805.203C361.35 807.082 358.402 812.82 366.028 812.82H421.721C422.379 812.82 422.914 812.287 422.914 811.627V808.236C422.196 800.816 420.567 794.459 420.567 794.459Z" fill="#FCFCFC"/>
<path d="M422.914 809.64H361.321V811.662C361.321 812.301 361.842 812.82 362.48 812.82H422.914V809.64Z" fill="#FCFCFC"/>
<path d="M384.852 795.999C385.544 796.413 386.211 796.905 386.783 797.477C387.06 797.754 387.32 798.044 387.564 798.352C387.831 798.685 388.163 799.112 388.172 799.557C388.178 799.845 387.866 799.983 387.629 799.867C387.437 799.773 387.311 799.61 387.172 799.454C387.114 799.387 387.058 799.318 387.004 799.248C386.969 799.205 386.931 799.16 386.898 799.117C386.907 799.126 386.792 798.976 386.841 799.04C386.608 798.737 386.354 798.448 386.087 798.173C385.567 797.639 385.023 797.149 384.421 796.734C384.231 796.603 384.147 796.361 384.269 796.152C384.384 795.956 384.653 795.881 384.852 795.999Z" fill="#FCFCFC"/>
<path d="M387.477 793.687C388.395 794.305 389.239 795.002 389.97 795.836C390.333 796.249 390.672 796.68 390.991 797.128C391.313 797.577 391.666 798.102 391.747 798.655C391.797 798.992 391.442 799.241 391.163 798.994C390.775 798.649 390.508 798.154 390.232 797.716C389.952 797.271 389.648 796.839 389.321 796.427C388.662 795.6 387.948 794.801 387.17 794.086C386.96 793.892 387.237 793.523 387.477 793.687Z" fill="#FCFCFC"/>
<path d="M336.89 475.666C336.89 475.666 332.265 511.133 336.89 543.516C349.026 619.575 383.664 782.477 383.664 782.477H433.867C433.867 782.477 419.112 607.424 415.418 548.987C414.302 531.317 413.541 509.371 387.966 483.702" fill="#FCFCFC"/>
<path d="M291.646 483.702C275.512 589.57 298.322 782.477 298.322 782.477H348.479L355.416 555.403C355.416 555.403 367.607 502.175 355.785 477.721" fill="#FCFCFC"/>
<path d="M353.066 632.379C353.066 632.379 339.733 539.249 339.733 502.279" stroke="#FCFCFC" stroke-miterlimit="10"/>
<path d="M331.528 502.278C331.528 502.278 334.95 534.713 341.51 534.713" stroke="#FCFCFC" stroke-miterlimit="10"/>
<path d="M426.076 782.477L403.735 548.987C403.735 548.987 397.172 513.703 376.282 483.702" stroke="#FCFCFC" stroke-miterlimit="10"/>
<path d="M341.511 782.602L349.027 603.572" stroke="#FCFCFC" stroke-miterlimit="10"/>
<path d="M386.585 377.166C381.701 355.664 377.768 358.181 359.047 353.551C359.047 353.551 346.919 352.341 338.521 353.026C335.139 353.3 333.401 353.59 328.046 354.389C320.265 361.589 297.442 382.853 294.662 415.226C292.482 440.574 292.034 504.488 292.034 504.488C292.034 504.488 358.576 510.366 400.256 500.884C400.256 475.331 393.694 408.47 386.585 377.166Z" fill="#FCFCFC"/>
<path d="M359.048 353.551C351.727 382.031 355.16 437.847 359.922 525.141C376.624 523.326 409.299 519.709 409.299 519.709C409.299 519.709 404.993 400.816 400.257 390.024C391.798 370.756 359.048 353.551 359.048 353.551Z" fill="#FCFCFC"/>
<path d="M328.045 354.39C328.045 354.39 316.319 368.33 321.037 528.064C308.085 528.064 292.249 525.619 283.753 521.869C281.608 453.034 290.847 378.772 290.847 378.772L328.045 354.39Z" fill="#FCFCFC"/>
<path d="M432.871 502.952L405.411 554.748L331.246 515.43L358.704 463.634L432.871 502.952Z" fill="#FCFCFC"/>
<path d="M340.798 483.691C339.733 483.127 338.378 483.6 337.77 484.747C337.16 485.895 337.529 487.283 338.592 487.848C339.659 488.412 341.014 487.938 341.622 486.79C342.232 485.642 341.861 484.254 340.798 483.691ZM340.264 490.558C339.294 490.746 338.282 490.64 337.37 490.157C335.124 488.965 334.344 486.036 335.629 483.612C336.913 481.189 339.775 480.191 342.021 481.381C342.935 481.865 343.59 482.643 343.979 483.552L348.772 474.508C349.359 473.402 350.731 472.982 351.837 473.567L354.877 475.18L339.452 504.277L336.411 502.665C335.306 502.078 334.884 500.706 335.47 499.6L340.264 490.558Z" fill="#FCFCFC"/>
<path d="M391.829 517.628L386.269 528.048C386.269 528.048 380.096 530.286 377.523 534.435C376.224 536.529 374.716 538.435 374.716 538.435L370.449 536.393C370.449 536.393 369.91 542.443 371.237 543.794C371.729 544.292 372.899 544.497 374.646 544.497C374.135 546.294 376 547.975 377.782 547.293C376.511 549.574 379.375 551.656 381.792 549.238C381.57 551.767 384.209 552.621 386.681 551.921C389.396 551.153 393.657 548.781 395.382 545.874C397.108 542.966 399.226 538.665 399.226 538.665L404.75 528.37" fill="#FCFCFC"/>
<path d="M388.157 518.1L385.006 525.509L414.438 542.941L421.08 526.723" fill="#FCFCFC"/>
<path d="M375.11 538.484C374.632 538.85 374.226 539.288 373.813 539.736C373.437 540.219 373.034 540.662 372.857 541.418C372.824 541.603 372.789 541.864 372.953 542.146C373.101 542.398 373.19 542.427 373.316 542.578C373.526 542.841 373.833 543.03 374.14 543.219C374.807 543.543 375.601 543.54 376.264 543.339C377.548 542.85 378.463 541.975 379.24 541.06C380.036 540.147 380.647 539.134 381.293 538.133C380.319 538.839 379.467 539.676 378.608 540.439C377.749 541.197 376.847 541.928 375.91 542.261C375.447 542.412 375.008 542.406 374.592 542.247C374.393 542.136 374.175 542.05 373.998 541.858C373.927 541.793 373.76 541.651 373.76 541.651C373.757 541.687 373.721 541.624 373.732 541.527C373.757 541.115 374.022 540.541 374.273 540.042C374.515 539.512 374.828 539.015 375.11 538.484Z" fill="#FCFCFC"/>
<path d="M375.82 400.479C381.935 415.223 398.147 462.676 398.147 462.676L386.175 521.348L424.487 540.584C424.487 540.584 445.883 480.371 445.883 463.144C445.883 445.917 425.368 396.588 410.152 375.007C398.257 358.134 371.09 355.526 359.048 353.549" fill="#FCFCFC"/>
<path d="M393.625 484.834L397.412 462.679L377.302 405.934" stroke="#FCFCFC" stroke-miterlimit="10"/>
<path d="M328.998 347.397L330.361 362.178C330.361 362.178 331.846 368.122 342.887 364.835C351.701 362.21 355.496 357.661 356.794 355.668C357.169 355.09 357.237 354.353 356.995 353.688L347.94 328.524" fill="#FCFCFC"/>
<path d="M317.392 327.735C317.287 326.887 316.219 326.496 315.383 326.661C314.193 326.897 313.243 327.866 312.762 328.981C312.284 330.096 312.21 331.342 312.247 332.555C312.282 333.682 312.421 334.848 313.001 335.818C314.028 337.539 316.481 338.226 318.254 337.287" fill="#FCFCFC"/>
<path d="M317.476 311.728C317.476 311.728 312.07 338.88 316.25 344.13C322.513 351.996 336.273 351.804 341.828 347.667C346.489 344.197 349.449 326.925 349.183 322.502C348.464 310.501 323.411 305.031 317.476 311.728Z" fill="#FCFCFC"/>
<path d="M359.27 307.616C357.244 302.129 353.312 297.425 347.343 294.715C345.038 293.669 342.429 292.99 339.977 293.622C337.953 294.142 336.171 295.523 334.088 295.711C332.305 295.873 330.583 295.134 328.873 294.607C324.467 293.251 319.644 293.274 315.252 294.67C313.603 295.195 311.941 295.963 310.909 297.352C307.185 302.362 312.351 309.011 316.545 311.794C322.465 315.724 330.255 315.104 337.045 315.492C338.467 315.573 339.939 315.666 341.203 316.323C344.513 318.041 344.903 322.529 344.921 326.258C344.939 330.028 345.771 332.3 347.783 335.312C348.901 336.989 351.474 340.251 353.048 342.137C354.071 337.492 356.546 333.32 358.433 328.954C361.38 322.133 361.737 314.293 359.27 307.616Z" fill="#FCFCFC"/>
<path d="M327.819 350.145C327.819 350.145 335.22 350.632 340.311 347.635C345.211 344.752 346.578 338.327 346.578 338.327" stroke="#FCFCFC" stroke-miterlimit="10" stroke-linejoin="round"/>
<path d="M342.933 329.78C343.455 328.759 345.327 327.363 346.403 327.413C347.477 327.464 348.495 328.047 349.293 328.844C353.038 332.581 349.673 340.347 344.244 339.837C342.251 339.65 342.632 337.006 342.632 337.006" fill="#FCFCFC"/>
<path d="M324.577 324.951C324.577 324.951 320.982 331.293 321.059 332.806C321.135 334.315 325.172 334.861 325.172 334.861" stroke="#FCFCFC" stroke-miterlimit="10" stroke-linejoin="round"/>
<path d="M331.785 326.768C331.673 327.458 332.007 328.087 332.531 328.171C333.052 328.254 333.565 327.761 333.676 327.071C333.788 326.38 333.453 325.752 332.93 325.669C332.41 325.584 331.895 326.077 331.785 326.768Z" fill="#FCFCFC"/>
<path d="M317.122 324.319C317.011 325.01 317.346 325.638 317.867 325.721C318.391 325.804 318.904 325.313 319.014 324.622C319.124 323.93 318.792 323.303 318.268 323.219C317.745 323.135 317.232 323.628 317.122 324.319Z" fill="#FCFCFC"/>
<path d="M337.833 321.516C337.672 321.181 337.502 320.85 337.324 320.523C337.257 320.401 337.186 320.275 337.073 320.195C336.938 320.1 336.762 320.082 336.598 320.07C335.279 319.974 333.949 320.029 332.642 320.227C332.046 320.318 331.344 320.384 330.785 320.613C330.045 320.915 330.157 320.918 330.484 321.667C330.517 321.741 330.552 321.82 330.615 321.868C330.724 321.95 330.877 321.926 331.009 321.897C333.159 321.448 335.401 321.438 337.555 321.87C337.667 321.892 337.808 321.904 337.87 321.808C337.923 321.727 337.882 321.621 337.833 321.516Z" fill="#FCFCFC"/>
<path d="M316.402 319.248C316.596 318.951 316.795 318.659 317.001 318.373C317.078 318.267 317.16 318.157 317.266 318.1C317.391 318.032 317.53 318.05 317.662 318.069C318.715 318.227 319.746 318.532 320.729 318.977C321.177 319.18 321.713 319.379 322.106 319.709C322.625 320.146 322.535 320.128 322.129 320.798C322.088 320.865 322.045 320.934 321.983 320.971C321.884 321.03 321.769 320.975 321.67 320.922C320.076 320.072 318.321 319.635 316.547 319.645C316.455 319.647 316.343 319.63 316.313 319.526C316.287 319.437 316.341 319.341 316.402 319.248Z" fill="#FCFCFC"/>
<path d="M319.829 337.887L332.346 338.888C332.346 338.888 330.819 345.366 324.775 344.882C319.404 344.453 319.829 337.887 319.829 337.887Z" fill="#FCFCFC"/>
</mask>
<g mask="url(#mask1_35_652)">
<rect width="551.34" height="619.406" transform="matrix(-1 0 0 1 498.639 242.324)" fill="#FCFCFC"/>
</g>
<circle cx="42.3893" cy="42.3893" r="42.3893" transform="matrix(-1 0 0 1 183.229 299.68)" fill="#FCFCFC"/>
<circle cx="42.3893" cy="42.3893" r="42.3893" transform="matrix(-1 0 0 1 381.047 278.902)" fill="#FCFCFC"/>
<path d="M353.557 634.085C353.848 643.385 356.818 651.688 358.754 660.685C359.464 663.985 359.937 667.352 360.679 670.635C361.495 674.253 361.668 677.92 362.411 681.529C363.641 687.504 364.505 693.381 365.336 699.41C366.413 707.218 369.649 714.758 371.495 722.43C372.523 726.697 373.2 731.018 374.344 735.267C375.258 738.661 374.77 741.936 375.114 745.372C375.814 752.374 378.477 758.971 380.06 765.794C381.025 769.947 382.133 774.122 383.352 778.208C383.58 778.973 383.721 782.299 384.564 782.673C387.455 783.958 391.37 784.219 394.515 784.444C397.342 784.646 397.874 787.736 395.477 788.871C392.968 790.06 391.279 792.833 389.087 794.626C388.172 795.375 386.537 795.647 385.43 795.954C383.884 796.384 382.891 797.437 381.466 797.956C379.924 798.516 378.738 800.039 377.462 800.997C375.965 802.12 373.931 802.446 372.265 803.229C370.28 804.164 367.991 804.443 366.029 805.424C365.289 805.794 362.669 807.069 362.565 808.003C362.282 810.548 361.495 811.686 364.162 812.507C367.145 813.424 371.065 812.931 374.075 812.43C378.717 811.656 382.682 813.233 387.163 813.873C391.182 814.447 395.394 814.067 399.442 813.738C404.229 813.35 409.208 814.239 414.032 814.239C415.558 814.239 417.327 813.763 418.863 813.527C419.663 813.404 423.8 812.891 424.156 812.083C424.739 810.757 423.831 809.492 423.386 808.349C422.738 806.684 422.242 804.868 421.981 803.095C421.464 799.579 421.675 796.233 420.595 792.778C419.872 790.465 418.536 788.462 419.806 786.176C420.844 784.308 423.745 783.835 425.696 784.175C428.379 784.641 433.308 784.131 434.107 781.095C434.629 779.112 433.774 777.577 433.606 775.648C432.818 766.587 431.855 757.265 431.855 748.144C431.855 742.152 432.002 736.178 431.239 730.244C430.139 721.687 429.383 712.983 429.064 704.376C428.909 700.191 429.361 695.966 429.006 691.788C428.571 686.667 427.547 681.501 426.831 676.409C425.528 667.145 425.422 657.777 424.502 648.482C423.837 641.75 422.86 635.206 421.981 628.522C421.528 625.08 421.754 621.993 421.808 618.572C421.866 614.848 421.293 611.082 420.768 607.408" stroke="black" stroke-width="4" stroke-linecap="round"/>
<path d="M421.385 608.823C420.409 604.829 420.131 600.982 420.131 596.886C420.131 594.805 419.628 592.761 419.593 590.664C419.564 588.833 419.163 587.027 418.966 585.209C418.419 580.163 418.574 575.084 417.543 570.077C417.035 567.615 417.196 565.197 416.995 562.71C416.768 559.896 416.507 557.115 416.189 554.308C415.789 550.78 415.651 547.097 415.651 543.547C415.651 542.311 415.468 540.9 416.368 539.913C416.962 539.262 417.585 538.768 418.249 538.221C419.476 537.21 420.839 537.853 421.823 538.838C422.926 539.941 423.582 540.684 425.148 540.371" stroke="black" stroke-width="4" stroke-linecap="round"/>
<path d="M425.08 539.77C426.281 538.992 426.377 536.9 426.75 535.593C427.173 534.114 427.546 532.644 427.926 531.139C428.251 529.849 428.954 528.772 429.271 527.504C429.67 525.909 430.748 524.514 431.483 523.065C432.313 521.429 432.823 519.738 433.278 517.96C434.538 513.034 435.217 508.029 436.912 503.204C438.583 498.45 440.102 493.643 441.352 488.757C442.194 485.465 443.649 482.324 444.43 479.028C446.555 470.053 446.524 460.888 445.265 451.821C444.985 449.803 444.838 447.755 444.43 445.757C443.86 442.971 442.171 440.086 441.073 437.529C439.006 432.713 436.651 427.968 434.685 423.128C434.112 421.719 433.76 420.173 433.092 418.813C429.612 411.723 427.121 404.097 424.399 396.694C423.618 394.571 422.935 392.361 421.584 390.523C420.657 389.261 419.598 388.132 418.614 386.919C415.529 383.116 413.256 378.57 410.293 374.637C409.428 373.49 408.504 372.128 407.044 371.822" stroke="black" stroke-width="4" stroke-linecap="round"/>
<path d="M407.402 372.056C404.792 370.299 403.078 367.648 401.114 365.236C398.227 361.689 393.439 361.219 389.284 360.363C386.106 359.709 382.891 359.31 379.711 358.679C377.352 358.211 375.054 357.728 372.73 357.109C370.075 356.4 367.301 356.144 364.728 355.18" stroke="black" stroke-width="4" stroke-linecap="round"/>
<path d="M364.513 355.293C365.992 353.195 367.428 351.016 369.177 349.13C370.454 347.754 371.678 346.284 372.837 344.807C373.423 344.06 374.042 343.358 374.653 342.633C375.497 341.632 376.07 340.435 376.731 339.313C378.281 336.681 379.479 334.105 380.147 331.108C380.82 328.088 381.257 325.017 381.043 321.923C380.93 320.295 380.66 318.681 380.714 317.044C380.754 315.851 380.968 314.675 380.935 313.479C380.903 312.325 380.93 311.126 380.78 309.98C380.655 309.028 380.158 308.123 379.753 307.269C378.659 304.966 377.433 302.714 376.444 300.365" stroke="black" stroke-width="4" stroke-linecap="round"/>
<path d="M377.385 301.413C376.323 299.662 374.789 298.524 373.603 296.904C372.128 294.891 370.302 293.436 368.368 291.819C364.414 288.516 360.386 284.736 355.818 282.276C354.854 281.756 353.72 281.542 352.662 281.299C350.391 280.778 348.11 280.224 345.824 279.771C342.336 279.081 339.281 279.457 335.83 279.997C333.02 280.437 330.156 280.875 327.439 281.7C325.767 282.208 323.918 282.279 322.204 282.652C320.682 282.983 319.452 283.543 317.996 284.105C315.581 285.036 312.922 286.058 310.882 287.661C307.883 290.021 305.182 292.738 302.692 295.627C300.88 297.728 300.443 301.077 299.962 303.705C299.253 307.572 298.335 311.418 298.033 315.352C297.748 319.051 297.357 322.708 297.357 326.436C297.357 329.483 298.544 332.076 299.273 334.989C299.639 336.454 300.307 337.514 300.938 338.847C301.54 340.118 301.927 341.494 302.542 342.767C303.532 344.819 304.54 346.869 305.585 348.879C306.578 350.788 308.992 352.527 310.77 353.713C311.984 354.522 313.251 355.799 314.489 356.418" stroke="black" stroke-width="4" stroke-linecap="round"/>
<path d="M314.678 356.367C312.432 358.111 309.557 359.521 306.875 360.503C304.8 361.264 302.58 361.62 300.503 362.393C298.312 363.208 296.051 363.659 293.852 364.517C291.197 365.551 288.37 366.65 285.904 368.083C281.793 370.471 279.232 374.431 277.061 378.501C276.4 379.74 276.289 381.284 275.999 382.637C275.636 384.334 275.177 386.011 274.837 387.712C274.238 390.707 272.955 393.472 272.623 396.544C272.266 399.844 271.588 403.044 271.114 406.325C270.491 410.642 270.405 415.111 270.768 419.46C271.327 426.169 271.013 433.007 271.013 439.738C271.013 442.861 270.725 445.933 270.309 449.028C269.939 451.786 269.936 454.679 269.404 457.401C269.011 459.41 268.398 461.195 268.398 463.292C268.398 464.274 268.196 467.214 268.196 466.232" stroke="black" stroke-width="4" stroke-linecap="round"/>
<path d="M268.414 467.304C265.987 465.976 263.365 464.931 260.865 463.744C259.255 462.979 257.835 461.805 256.201 461.117C254.915 460.575 253.53 460.199 252.201 459.776C249.027 458.766 245.698 458.18 242.507 457.181C238.839 456.034 235.206 454.811 231.42 454.093C225.852 453.037 220.735 451.295 215.571 449C213.888 448.252 212.152 447.79 210.992 446.244C209.372 444.083 208.564 441.286 207.722 438.759C205.82 433.054 202.187 428.194 200.13 422.525C198.497 418.025 196.615 413.62 194.919 409.143C193.256 404.755 191.828 400.407 189.547 396.286C187.792 393.117 185.32 390.126 182.93 387.418C181.451 385.741 180.135 383.948 178.555 382.356C177.282 381.074 175.879 379.935 174.631 378.625C173.41 377.343 172.403 376.207 170.964 375.247C169.963 374.58 169.03 373.837 168.047 373.113" stroke="black" stroke-width="4" stroke-linecap="round"/>
<path d="M208.267 442.42C209.338 443.329 210.395 444.308 211.261 445.421C211.484 445.708 211.715 446.147 211.715 446.507" stroke="black" stroke-width="4" stroke-linecap="round"/>
<path d="M168.871 373.112C173.735 370.597 176.967 365.793 179.399 361.026C180.625 358.624 180.893 355.898 181.238 353.256C181.587 350.578 182.026 347.911 182.361 345.234C182.668 342.776 182.631 340.292 182.631 337.822C182.631 334.949 182.561 331.78 181.799 329.006C180.817 325.428 178.851 322.754 176.671 319.871C175.667 318.544 175.021 316.896 173.71 315.807C172.059 314.437 170.515 313.203 169.055 311.646C166.613 309.041 163.122 306.522 159.872 305.066C156.459 303.537 152.771 302.188 149.15 301.176C146.837 300.53 144.945 300.566 142.599 300.653C138.34 300.813 134.288 301.606 130.068 302.124C128.852 302.274 127.724 302.132 126.545 302.492C125.12 302.928 123.524 303.314 122.191 303.963C118.098 305.954 113.786 307.138 110.347 310.272C107.688 312.694 105.941 315.759 103.815 318.594C101.198 322.084 99.7554 325.724 98.9379 329.993C98.2068 333.811 96.9917 338.215 97.8445 342.07C98.3112 344.179 99.3777 346.102 99.7024 348.253C100.025 350.391 100.529 352.504 100.806 354.649C101.136 357.211 101.995 359.727 102.422 362.284C102.701 363.959 104.016 365.515 104.986 366.881C105.607 367.756 106.188 368.779 106.95 369.542C107.445 370.037 108.463 370.193 109.127 370.325" stroke="black" stroke-width="4" stroke-linecap="round"/>
<path d="M108.664 370.543C104.716 373.081 99.8905 374.521 96.4479 377.873C93.6646 380.583 91.1659 383.085 89.064 386.37C87.9458 388.117 86.4868 389.498 85.4806 391.338C84.0876 393.885 82.5471 396.556 80.8656 398.925C78.4442 402.337 75.8422 405.896 74.4589 409.892C73.5483 412.523 72.652 415.161 71.7849 417.806C70.9236 420.433 70.7216 423.196 69.8304 425.814C69.4633 426.892 68.2375 430.409 69.586 430.999C70.4633 431.383 71.798 431.868 72.7487 431.868" stroke="black" stroke-width="4" stroke-linecap="round"/>
<path d="M73.2959 432.107C72.7529 434.008 72.2879 435.96 71.6057 437.818C71.3193 438.598 70.94 439.282 70.8291 440.113C70.6904 441.154 70.6097 442.231 70.3723 443.254C69.8461 445.52 68.9235 447.667 68.3738 449.935C67.8281 452.186 67.4452 454.47 67.2317 456.775C66.8719 460.662 66.8722 464.678 67.2317 468.561C67.5862 472.39 67.8462 476.197 69.1389 479.844C69.9135 482.03 70.8292 484.931 73.136 485.92C74.534 486.519 76.145 486.718 77.59 487.199C79.1361 487.715 80.5348 488.241 82.1238 488.638C87.8745 490.076 92.7895 489.139 98.375 488.021" stroke="black" stroke-width="4" stroke-linecap="round"/>
<path d="M98.5684 488.742C93.7848 495.492 88.6348 502.566 85.3651 510.227C84.1291 513.122 82.4751 515.719 81.0737 518.521C80.0665 520.536 79.5117 522.765 78.7704 524.883C77.2191 529.315 76.3749 534.156 75.2468 538.717C74.0163 543.692 72.5034 548.701 71.6683 553.757C70.4988 560.84 69.6595 568.183 69.2279 575.338C67.4949 604.064 66.908 632.848 64.8131 661.55C64.5588 665.033 64.5437 668.967 63.7711 672.367C63.5299 673.428 63.6112 674.444 63.4694 675.507C63.3758 676.209 63.3908 677.111 62.7839 676.302" stroke="black" stroke-width="4" stroke-linecap="round"/>
<path d="M63.7695 674.824C63.3243 678.176 62.8281 681.417 63.1526 684.792C63.5288 688.705 63.1803 692.811 62.659 696.692C61.8174 702.957 62.042 709.266 62.042 715.572C62.042 723.469 62.9176 731.384 62.4807 739.291C62.3544 741.578 61.6999 743.735 61.425 745.995C61.1419 748.323 61.1406 750.69 61.1097 753.029C61.0299 759.065 60.9607 765.118 61.1097 771.154C61.1774 773.895 61.1488 777.371 61.7952 779.956" stroke="black" stroke-width="4" stroke-linecap="round"/>
<path d="M63.0884 780.72C62.5609 780.126 65.3736 779.576 64.7633 779.188C64.2544 778.864 63.6319 778.675 63.0884 778.404C62.9173 778.318 61.8081 777.979 62.4648 777.833C63.7994 777.537 65.16 777.693 66.5095 777.424C67.7893 777.168 69.933 776.796 71.1956 777.156C71.5564 777.259 70.4697 779.706 70.3938 780.016C69.7502 782.649 70.3047 785.59 70.3047 788.266C70.3047 791.421 70.0325 794.573 69.6633 797.701C69.2656 801.069 69.1931 804.465 68.5051 807.803C68.2542 809.021 66.9568 812.057 68.3893 813.042C68.9474 813.426 69.3387 814.002 69.9038 814.378C70.642 814.871 71.5439 815.152 72.3984 815.349C74.7266 815.887 77.5164 815.259 79.784 814.753C81.9374 814.272 84.3776 814.274 86.5727 814.236C87.274 814.224 88.3323 814.291 88.9158 813.817C90.3602 812.644 90.2116 811.232 89.8067 809.612C89.6603 809.027 91.3027 809.371 91.633 809.621C92.7077 810.434 93.5741 811.821 94.5196 812.793C95.524 813.825 97.2578 813.862 98.5999 814.147C100.588 814.569 102.967 813.904 104.863 813.354C109.869 811.901 115.047 812.615 120.142 812.115C120.667 812.064 124.548 811.182 124.508 811.091C124.226 810.457 124.289 809.695 124.089 809.033C123.878 808.336 123.353 807.43 122.886 806.859C120.321 803.724 116.904 802.734 113.514 800.801C111.443 799.62 109.169 798.896 106.93 798.119C105.835 797.739 104.827 797.232 103.812 796.676C102.702 796.068 101.476 795.711 100.355 795.135C98.5632 794.213 96.4816 793.637 95.2858 791.91C94.6884 791.047 93.8922 790.025 93.7534 788.952C93.5805 787.616 93.5112 786.217 93.593 784.872C93.6811 783.423 93.8305 781.969 93.9672 780.524C94.0289 779.872 93.9138 777.963 94.6176 777.584C95.3909 777.168 96.3423 777.255 97.1745 777.023C98.3448 776.696 99.743 776.272 100.97 776.408C102.278 776.553 103.528 776.93 104.818 776.515C105.788 776.203 106.794 775.768 107.669 775.268" stroke="black" stroke-width="4" stroke-linecap="round"/>
<path d="M108.151 774.944C108.375 772.257 108.632 769.613 108.632 766.899C108.632 761.812 109.312 756.846 110.521 751.923C111.038 749.816 111.132 747.677 111.438 745.535C111.795 743.039 112.143 740.556 112.543 738.069C112.699 737.099 112.684 736.111 112.837 735.138C113.049 733.791 113.429 732.484 113.603 731.129C113.899 728.826 114.374 726.535 114.53 724.216C114.699 721.695 114.647 719.197 114.966 716.679C115.313 713.94 115.616 711.225 115.928 708.482C116.472 703.712 116.869 698.882 118.165 694.246C118.729 692.226 119.423 690.28 119.875 688.223C120.677 684.577 121.292 680.878 122.263 677.274C123.551 672.489 124.508 667.502 124.508 662.529" stroke="black" stroke-width="4" stroke-linecap="round"/>
<path d="M124.669 665.256C125.361 662.802 125.314 660.057 125.631 657.523C125.851 655.76 125.791 653.985 125.791 652.213C125.791 648.51 126.123 645.025 126.593 641.362C126.989 638.279 127.589 635.244 128.036 632.167C128.259 630.638 128.3 629.094 128.518 627.57" stroke="black" stroke-width="4" stroke-linecap="round"/>
<path d="M125.727 658.789C126.148 660.641 126.839 662.446 127.29 664.302C127.832 666.534 127.834 668.639 127.818 670.934C127.791 674.82 127.263 678.683 127.247 682.572C127.225 688.296 126.988 693.991 126.878 699.711C126.803 703.611 126.892 707.491 127.142 711.381C127.408 715.523 127.818 719.712 127.818 723.863C127.818 728.114 127.438 732.346 127.438 736.6C127.438 741.408 127.641 746.21 127.332 751.015C127.125 754.234 126.948 757.451 126.878 760.678C126.822 763.227 126.403 765.737 126.329 768.26C126.269 770.278 126.802 772.728 128.008 774.364C128.461 774.98 128.972 775.555 129.381 776.202C129.722 776.742 130.092 778.121 130.711 778.398C131.855 778.911 133.845 778.943 135.052 778.641C135.646 778.493 137.322 778.382 137.322 777.596" stroke="black" stroke-width="4" stroke-linecap="round"/>
<path d="M138.269 777.394C138.517 780.615 138.828 783.744 138.828 786.979C138.828 789.706 138.477 792.233 138.083 794.908C137.719 797.371 137.69 799.77 137.151 802.226C136.779 803.921 136.482 805.632 136.116 807.329C135.952 808.087 135.518 809.227 135.847 810C136.066 810.515 136.441 810.961 136.695 811.459C137.003 812.061 137.26 813.786 137.917 814.078C138.415 814.299 139.032 814.172 139.552 814.181C141.073 814.209 142.582 814.446 144.107 814.471C146.495 814.511 148.826 814.898 151.228 814.833C152.741 814.793 155.179 815.001 156.6 814.264C158.34 813.362 157.31 810.14 157.936 808.53C158.252 807.716 159.575 807.834 159.882 808.55C160.539 810.085 161.287 810.847 162.449 812.008C163.835 813.394 164.98 815.023 166.951 815.527C171.346 816.651 175.892 814.935 180.273 814.306C183.027 813.91 185.797 813.826 188.574 813.954C189.927 814.016 191.551 814.226 192.777 813.54C194.268 812.705 194.301 810.901 194.123 809.275C193.938 807.59 191.677 806.188 190.417 805.331C185.801 802.192 181.511 798.576 176.774 795.601C174.302 794.049 171.165 793.95 168.535 792.672C167.112 791.98 165.604 791.574 164.198 790.83C163.011 790.201 162.855 789.416 162.718 788.056C162.566 786.557 163.285 784.798 163.515 783.315C163.737 781.88 163.96 780.391 163.96 778.936C163.96 778.442 163.686 777.593 163.991 777.135C164.234 776.77 165.423 776.786 165.844 776.69C166.906 776.447 168.222 776.365 169.311 776.276C171.995 776.057 174.981 774.838 177.395 776.649" stroke="black" stroke-width="4" stroke-linecap="round"/>
<path d="M183.545 801.056C182.437 800.63 181.264 800.501 180.202 799.938C179.205 799.41 178.248 798.981 177.169 798.634C175.784 798.189 174.656 797.55 173.422 796.802C172.635 796.325 171.746 796.185 170.906 795.839C169.533 795.274 168.294 794.54 167.149 793.603C166.577 793.135 165.524 792.454 165.286 791.74" stroke="black" stroke-width="4" stroke-linecap="round"/>
<path d="M177.718 776.969C177.51 770.296 177.223 763.966 177.822 757.324C178.457 750.291 179.178 743.274 180.158 736.278C181.165 729.079 182.911 721.929 183.583 714.687C184.029 709.883 183.94 705.09 184.465 700.284C184.839 696.871 185.263 693.13 185.114 689.696C184.936 685.594 183.823 681.609 183.791 677.421C183.736 670.294 183.92 663.285 184.621 656.193C185.214 650.199 186.054 644.238 186.801 638.261C187.801 630.264 187.946 622.151 189.163 614.179C190.062 608.284 190.797 602.679 190.797 596.714C190.797 590.222 190.569 583.873 190.771 577.38C190.986 570.505 190.605 563.609 190.226 556.749C189.761 548.314 189.621 540.029 188.669 531.629C187.387 520.311 185.906 509.109 181.818 498.36C179.659 492.682 177.491 487.496 176.862 481.31C176.548 478.224 176.784 475.458 176.784 472.409C176.784 469.148 176.398 456.537 179.794 455.567C180.948 455.237 187.967 465.274 188.773 466.648C191.891 471.96 196.337 474.502 202.346 475.964C205.463 476.722 209.059 478.014 212.285 478.014C215.941 478.014 219.554 477.916 223.184 478.377C228.059 478.996 233.072 478.197 237.976 478.585C242.062 478.909 246.093 479.721 250.121 480.454C254.258 481.206 258.631 482.61 262.759 483.126C264.701 483.369 265.737 483.329 266.704 485.047C267.8 486.995 269.74 490.29 269.74 492.495C269.74 498.379 269.289 503.98 268.235 509.778C266.673 518.367 266.003 526.676 266.003 535.47" stroke="black" stroke-width="4" stroke-linecap="round"/>
<path d="M265.376 486.035C266.448 488.984 267.777 491.617 268.078 494.748C268.235 496.381 267.904 498.113 267.8 499.735C267.698 501.343 267.688 503.018 267.423 504.614C267.273 505.523 266.965 506.386 266.854 507.308C266.593 509.471 266.9 511.825 266.9 514.02" stroke="black" stroke-width="4" stroke-linecap="round"/>
<path d="M266.025 535.09C266.773 537.448 266.578 540.211 268.578 541.933C270.474 543.566 273.477 544.233 275.81 544.916C278.905 545.821 282.244 547.041 285.514 547.041" stroke="black" stroke-width="4" stroke-linecap="round"/>
<path d="M286.564 547.092C286.982 549.555 287.434 552.03 287.224 554.543C287.061 556.497 287.316 558.39 287.168 560.334C286.669 566.892 286.292 573.322 285.545 579.857C284.909 585.427 284.956 591.446 285.734 597.004C286.532 602.706 286.224 608.528 286.224 614.283C286.224 619.34 287.243 624.258 287.243 629.336C287.243 634.299 287.922 639.222 287.922 644.162C287.922 652.553 288.516 660.881 288.601 669.25C288.712 680.128 289.468 690.976 289.941 701.846C290.308 710.3 290.24 718.689 291.733 727.048C292.595 731.877 293.89 736.616 294.713 741.459C295.912 748.518 296.611 755.684 297.259 762.812C297.765 768.374 298.579 773.911 298.769 779.506C298.825 781.172 298.748 782.839 298.787 784.505C298.8 785.034 299.127 787.006 299.127 785.448" stroke="black" stroke-width="4" stroke-linecap="round"/>
<path d="M300.173 786.026C300.964 785.406 301.75 784.778 302.545 784.163C302.675 784.062 302.714 784.008 302.859 784.003C303.391 783.985 303.913 783.946 304.444 783.896C306.355 783.717 308.281 783.537 310.183 783.299C312.154 783.053 314.146 782.253 315.999 783.411C316.983 784.027 317.635 785.312 317.72 786.452C317.81 787.66 317.22 788.194 316.277 788.854C315.932 789.095 315.492 789.089 315.117 789.339C313.993 790.089 312.993 791.112 311.757 791.67C310.422 792.272 309.122 792.896 307.834 793.599C306.144 794.521 304.421 795.424 302.77 796.415C301.728 797.04 300.612 797.555 299.599 798.225C298.649 798.854 297.74 799.545 296.801 800.189C295.07 801.377 293.078 801.955 291.21 802.864C289.098 803.891 287.193 805.25 285.098 806.319C284.537 806.605 284.016 806.987 283.43 807.218C282.65 807.525 281.913 807.838 281.324 808.46C280.38 809.457 279.394 811.127 280.052 812.525C280.338 813.133 280.898 813.431 281.513 813.607C283.007 814.034 284.569 814.04 286.104 814.193C288.396 814.422 290.696 814.263 292.997 814.353C294.15 814.398 295.308 814.495 296.463 814.447C297.956 814.387 299.428 814.05 300.918 813.927C304.22 813.654 307.536 812.988 310.846 812.968C313.755 812.952 316.622 813.125 319.519 813.187C321.97 813.24 324.423 813.418 326.872 813.513C328.318 813.569 329.701 813.96 331.132 814.122C332.75 814.306 334.469 814.345 336.084 814.092C337.924 813.804 339.672 813.114 341.468 812.643C342.746 812.308 343.218 812.546 343.278 811.052C343.374 808.666 342.704 806.377 342.26 804.059C341.996 802.678 342.077 801.404 342.018 800.024C341.913 797.567 341.484 795.039 341.012 792.629C340.796 791.527 340.417 790.452 340.32 789.333C340.266 788.711 340.213 788.101 340.213 787.476C340.213 787.15 340.157 786.746 340.213 786.429C340.466 785.012 341.845 783.987 342.947 783.222C343.834 782.606 344.47 782.56 345.467 782.406C346.001 782.323 346.257 782.191 346.763 782.406C347.047 782.526 348.258 782.521 348.307 782.619" stroke="black" stroke-width="4" stroke-linecap="round"/>
<path d="M348.996 782.826C350.199 777.623 350.785 773.336 350.468 768.068C350.278 764.905 350.466 761.772 350.662 758.616C351.094 751.649 350.727 744.62 351.262 737.661C351.856 729.946 350.711 722.465 350.41 714.788C350.134 707.746 350.974 701.006 351.514 694.045C352.001 687.763 352.435 681.325 352.482 675.026C352.508 671.575 352.594 668.092 352.405 664.645C352.201 660.906 352.654 657.185 352.308 653.451C351.718 647.078 353.877 627.916 353.877 634.315" stroke="black" stroke-width="4" stroke-linecap="round"/>
<path d="M212.146 327.421C212.089 327.46 212.031 327.5 211.974 327.54C212.664 328.297 214.259 329.832 213.335 328.689C213.045 328.331 212.631 327.898 212.146 327.421C223.331 319.686 234.669 312.319 249.108 308.224C261.25 304.782 273.527 301.834 285.988 299.016C295.68 296.824 306.144 294.36 310.997 286.982C328.84 259.851 290.209 231.831 263.181 216.456C242.303 204.578 216.535 201.212 194.366 207.727C171.82 214.353 159.033 231.694 159.878 251.381C160.276 260.642 166.407 268.39 173.295 276.056C179.458 282.916 185.18 290.228 190.158 297.613C195.627 305.726 200.978 313.75 206.536 321.803C207.514 323.219 210.328 325.631 212.146 327.421Z" fill="white"/>
<path d="M208.693 329.818C221.029 321.238 233.183 312.74 249.108 308.224C261.25 304.782 273.527 301.834 285.988 299.016C295.68 296.824 306.144 294.36 310.997 286.982C328.84 259.851 290.209 231.831 263.181 216.456C242.303 204.578 216.535 201.212 194.366 207.727C171.82 214.353 159.033 231.694 159.878 251.381C160.276 260.642 166.407 268.39 173.295 276.056C179.458 282.916 185.18 290.228 190.158 297.613C195.627 305.726 200.978 313.75 206.536 321.803C207.774 323.597 211.961 326.99 213.335 328.689C214.734 330.42 210.357 326.01 212.093 327.457" stroke="black" stroke-width="4" stroke-linecap="round"/>
<path d="M284.409 263.717C281.832 261.658 275.031 255.566 275.845 258.161C276.986 261.802 278.687 265.355 279.232 269.04C279.476 270.685 279.942 274.715 276.455 274.694C274.87 274.685 273 273.569 271.918 272.849C268.408 270.514 265.231 267.634 262.256 264.953C259.895 262.825 258.174 260.974 257.256 258.444C257.184 258.246 256.809 261.235 256.709 261.659C256.452 262.741 255.802 265.582 253.678 265.564C250.613 265.538 245.715 260.647 243.653 259.197C242.079 258.09 240.557 256.415 239.542 258.217C237.957 261.031 236.943 264.884 234.014 267.05C228.593 271.06 218.057 251.699 214.013 256.021C213.561 256.504 212.667 258.461 211.475 258.241C208.328 257.661 206.224 255.057 203.47 253.915C199.395 252.227 200.135 257.002 199.083 258.357C198.623 258.949 197.72 257.103 197.38 256.386C195.738 252.925 194.656 249.408 193.331 245.914" stroke="black" stroke-width="4" stroke-linecap="round"/>
</mask>
<g mask="url(#mask0_35_652)">
<rect x="-187.999" y="191.998" width="743.741" height="817.196" fill="#2B2C30"/>
</g>
<mask id="mask2_35_652" style="mask-type:alpha" maskUnits="userSpaceOnUse" x="1433" y="655" width="662" height="636">
<path d="M2094.21 1074.79C2093.56 1112.34 1825.64 1292.94 1675.9 1290.32C1526.17 1287.7 1432.58 1138.83 1433.23 1101.28C1433.89 1063.73 1674.55 999.427 1824.29 1002.05C1974.02 1004.67 2094.87 1037.24 2094.21 1074.79Z" fill="#2C2D30"/>
<mask id="mask3_35_652" style="mask-type:alpha" maskUnits="userSpaceOnUse" x="1527" y="736" width="346" height="466">
<path d="M1758.01 836.49L1735.91 874.259L1683.17 893.056L1681.78 906.719C1681.78 906.719 1733.74 904.811 1751.62 896.67C1763.9 891.08 1789.4 844.944 1789.4 844.944" fill="#FCFCFC"/>
<path d="M1777.45 807.719C1777.45 807.719 1767.37 816.096 1759.49 828.628C1754.12 837.17 1745.84 856.167 1745.84 856.167L1776.7 874.25L1801.01 834.962" fill="#FCFCFC"/>
<path d="M1779.39 1136.68L1782.58 1181.38C1782.58 1181.38 1756.69 1198.72 1756.69 1199C1756.69 1199.28 1777.85 1200.04 1777.85 1200.04L1787.21 1195.46H1802.74C1803.81 1195.46 1804.6 1194.46 1804.37 1193.42L1802.46 1185.07L1803.16 1149.33" fill="#FCFCFC"/>
<path d="M1758.21 1195.87C1761.54 1193.93 1773.05 1186.68 1773.05 1186.68L1787.15 1195.46H1804.83V1201.98H1786.59V1198.07H1784.99C1784.59 1198.07 1784.2 1198.2 1783.87 1198.44L1779.87 1201.45C1779.41 1201.79 1778.85 1201.98 1778.27 1201.98H1756.69C1753.77 1201.98 1753.12 1198.83 1758.21 1195.87Z" fill="#FCFCFC"/>
<path d="M1791.86 1196.69L1803.61 1189.44L1802.98 1186.68L1790.23 1195.48L1791.86 1196.69Z" fill="#FCFCFC"/>
<path d="M1767.83 907.77C1767.83 907.77 1756.32 925.777 1756.32 978.496C1756.32 1014.61 1768.67 1169.05 1768.67 1169.05H1811.81C1811.81 1169.05 1812.87 1015.52 1812.87 996.888C1812.87 959.911 1821.7 931.71 1817.52 912.681" fill="#FCFCFC"/>
<path d="M1767.69 1160.32H1811.57" stroke="#FCFCFC" stroke-miterlimit="10"/>
<path d="M1840.01 1136.68L1843.2 1181.38C1843.2 1181.38 1817.31 1198.72 1817.31 1199C1817.31 1199.28 1838.47 1200.04 1838.47 1200.04L1847.84 1195.46H1863.36C1864.43 1195.46 1865.22 1194.46 1864.99 1193.42L1863.08 1185.07L1863.78 1149.33" fill="#FCFCFC"/>
<path d="M1818.83 1195.87C1822.16 1193.93 1833.67 1186.68 1833.67 1186.68L1847.77 1195.46H1865.45V1201.98H1847.21V1198.07H1845.62C1845.21 1198.07 1844.82 1198.2 1844.49 1198.44L1840.49 1201.45C1840.03 1201.79 1839.47 1201.98 1838.89 1201.98H1817.31C1814.39 1201.98 1813.74 1198.83 1818.83 1195.87Z" fill="#FCFCFC"/>
<path d="M1852.48 1196.69L1864.23 1189.44L1863.6 1186.68L1850.85 1195.48L1852.48 1196.69Z" fill="#FCFCFC"/>
<path d="M1795.43 916.182L1832.17 1169.05H1872.67C1872.67 1169.05 1867.02 987.737 1861.63 963.484C1852.57 922.68 1842.04 916.134 1836.62 907.174" fill="#FCFCFC"/>
<path d="M1812.68 1034.92C1812.68 1034.92 1802.25 955.779 1795.43 907.539" stroke="#FCFCFC" stroke-miterlimit="10"/>
<path d="M1787.48 909.314C1787.48 909.314 1791.74 932.172 1793.7 934.126C1795.65 936.078 1799.92 938.238 1799.92 938.238" stroke="#FCFCFC" stroke-miterlimit="10"/>
<path d="M1818.64 909.313C1818.64 909.313 1826.42 924.247 1843.19 927.002" stroke="#FCFCFC" stroke-miterlimit="10"/>
<path d="M1761.97 923.773C1761.97 923.773 1775.78 923.939 1778.86 910.246" stroke="#FCFCFC" stroke-miterlimit="10"/>
<path d="M1830.72 1160.32H1872.14" stroke="#FCFCFC" stroke-miterlimit="10"/>
<path d="M1868.89 1168.36C1868.89 1168.36 1867.54 1042.83 1856.59 969.067C1851.91 937.555 1837.88 916.235 1829.3 905.222" stroke="#FCFCFC" stroke-miterlimit="10"/>
<path d="M1809.12 1010.38L1806.78 1169.05" stroke="#FCFCFC" stroke-miterlimit="10"/>
<path d="M1771.5 822.324C1761.87 836.274 1753.31 844.963 1765.21 865.822C1767.67 894.329 1767.45 908.215 1767.45 908.215C1767.45 908.215 1793.17 920.365 1836.62 907.171C1836.62 907.171 1853.87 841.531 1848.43 836.274C1843 831.017 1794.27 794.47 1794.27 794.47L1775.66 809.324L1771.5 822.324Z" fill="#FCFCFC"/>
<path d="M1834.31 912.007L1783.63 923.932L1767.66 856.061L1818.34 844.136L1834.31 912.007Z" fill="#FCFCFC"/>
<path d="M1807.37 848.825L1780.74 855.092L1780.09 852.311C1779.85 851.297 1780.48 850.284 1781.49 850.046L1804.45 844.644C1805.46 844.405 1806.48 845.032 1806.72 846.046L1807.37 848.825Z" fill="#FCFCFC"/>
<path d="M1792.85 846.889C1791.8 847.136 1790.77 846.546 1790.54 845.574C1790.31 844.6 1790.97 843.61 1792.02 843.363C1793.08 843.115 1794.11 843.704 1794.34 844.677C1794.57 845.651 1793.9 846.641 1792.85 846.889ZM1791.56 841.403C1789.35 841.926 1787.94 844.015 1788.43 846.071C1788.91 848.126 1791.1 849.369 1793.32 848.848C1795.53 848.325 1796.94 846.236 1796.46 844.181C1795.97 842.125 1793.78 840.881 1791.56 841.403Z" fill="#FCFCFC"/>
<path d="M1797.42 885.842C1797.42 885.842 1786.76 882.97 1783.17 881.913C1781.54 881.433 1779.76 880.887 1778.04 880.851C1777.55 880.841 1776.8 880.809 1776.78 881.498C1776.77 882.226 1778.29 883.099 1778.78 883.524C1778.94 883.662 1779.1 883.829 1779.13 884.042C1779.17 884.307 1778.97 884.559 1778.73 884.676C1778.49 884.791 1778.21 884.802 1777.94 884.808C1776.78 884.841 1775.62 884.875 1774.47 884.853C1774.33 884.234 1774.2 883.614 1774.07 882.993C1773.11 883.355 1772.43 884.294 1772.22 885.299C1771.87 886.951 1773.44 887.854 1774.74 888.282C1774.18 888.271 1772.89 889.052 1772.87 889.617C1772.86 890.182 1773.22 890.709 1773.71 891.007C1774.18 891.304 1775.81 891.546 1775.81 891.546C1775.81 891.546 1774.03 891.76 1773.96 892.711C1773.95 893.02 1773.96 893.341 1774.1 893.619C1774.33 894.09 1774.86 894.33 1775.36 894.495C1776.27 894.793 1776.83 895.029 1776.83 895.029C1776.83 895.029 1776.02 895.251 1776.02 896.401C1776.02 897.288 1776.94 898.112 1778.18 898.372C1781.37 899.039 1784.11 899.372 1787.34 899.739C1789.56 899.99 1794.37 900.072 1796.34 899.739" fill="#FCFCFC"/>
<path d="M1852.05 834.07C1852.05 834.07 1874.55 890.685 1862.69 905.219C1850.83 919.751 1790.09 898.143 1790.09 898.143L1795.19 885.986L1835.67 883.373L1824.8 842.67" fill="#FCFCFC"/>
<path d="M1797.42 799.406C1797.42 799.406 1824.83 800.48 1839.77 811.401C1854.72 822.325 1864.64 858.74 1864.64 858.74L1828.12 869.896L1820.48 838.658" fill="#FCFCFC"/>
<path d="M1828.12 869.896L1821.12 841.286" stroke="#FCFCFC" stroke-miterlimit="10"/>
<path d="M1760.13 842.074C1760.13 842.074 1763.25 832.355 1770.61 823.611C1774.59 818.889 1773.82 813.294 1773.82 813.294" stroke="#FCFCFC" stroke-miterlimit="10"/>
<path d="M1799.8 783.095L1804.74 801.268C1804.74 801.268 1803.49 808.491 1794.12 809.471C1787.44 810.17 1787.4 803.42 1787.4 803.42L1788.11 784.318" fill="#FCFCFC"/>
<path d="M1785.18 757.603C1776.15 765.677 1767.28 787.544 1780.63 790.917C1791.25 793.6 1800.64 787.303 1803.85 778.821C1808.58 766.302 1794.21 749.526 1785.18 757.603Z" fill="#FCFCFC"/>
<path d="M1787.85 791.412C1787.85 791.412 1792.17 790.964 1797.32 787.365" stroke="#FCFCFC" stroke-miterlimit="10" stroke-linejoin="round"/>
<path d="M1778.72 768.519C1778.72 768.519 1771.52 774.839 1771.96 776.03C1772.69 777.998 1775.55 778.158 1775.55 778.158" fill="#FCFCFC"/>
<path d="M1782.45 782.349L1775.63 779.472C1775.63 779.472 1774.41 785.001 1776.64 785.985C1780.96 787.894 1782.45 782.349 1782.45 782.349Z" fill="#FCFCFC"/>
<path d="M1814.2 752.567C1809.04 747.574 1803.05 747.191 1796.35 749.188C1795.81 749.349 1795.24 749.526 1794.69 749.398C1794.32 749.307 1793.99 749.079 1793.64 748.898C1791.93 747.99 1789.84 748.245 1787.94 748.627C1785.33 749.148 1782.66 749.911 1780.63 751.635C1778.62 753.35 1777.4 755.97 1777.39 758.618C1777.38 761.221 1778.68 762.841 1780.87 764.004C1781.83 764.514 1787.29 766.333 1788 764.689C1787.44 765.979 1788.09 767.545 1789.18 768.43C1790.27 769.315 1791.7 769.646 1793.1 769.816C1793.5 769.866 1793.94 769.913 1794.26 770.171C1794.56 770.419 1794.7 770.811 1794.82 771.187C1795.72 774.067 1795.39 777.104 1795.55 780.07C1795.69 782.663 1796.5 785.355 1795.31 787.817C1793.6 791.338 1790.74 795.147 1794.36 798.657C1795.71 799.963 1797.46 801.101 1797.9 802.928C1798.24 804.368 1797.68 805.981 1798.32 807.313C1798.99 808.685 1800.65 809.199 1802.13 809.567C1806.17 810.58 1810.27 811.575 1814.44 811.558C1818.61 811.541 1822.92 810.41 1826.03 807.631C1827.36 806.442 1828.51 804.768 1828.26 802.997C1828.08 801.624 1827.08 800.44 1827.01 799.055C1826.91 797.392 1828.14 795.971 1828.62 794.378C1829.89 790.249 1826.15 787.555 1826.34 783.743C1826.43 781.898 1827.53 780.229 1827.69 778.391C1828.02 774.76 1824.78 772.379 1823.12 769.53C1822.21 767.969 1821.04 766.529 1820.36 764.852C1819.57 762.899 1819.38 760.756 1818.52 758.824C1817.5 756.511 1816.02 754.327 1814.2 752.567Z" fill="#FCFCFC"/>
<path d="M1791.48 777.781C1792.95 776.057 1795.11 776.559 1796 777.162C1798.16 778.617 1798.14 781.684 1797 784.023C1795.72 786.646 1793.84 787.154 1792.49 786.987C1791.13 786.82 1790.2 785.08 1790.54 782.998" fill="#FCFCFC"/>
<path d="M1685.87 892.986C1681.62 893.421 1671.54 891.916 1667.29 892.349C1664.78 892.605 1660.42 893.277 1660.32 894.212C1660.07 896.615 1667.08 894.463 1666.96 895.682C1666.88 896.421 1661.45 896.83 1658.66 897.05C1656.17 897.248 1652.86 897.795 1652.64 899.09C1652.35 900.753 1666.29 899.563 1666.29 899.563C1666.29 899.563 1651.71 901.322 1651.56 902.733C1651.35 904.766 1666.02 903.021 1666.02 903.021C1666.02 903.021 1653.63 904.705 1653.47 906.209C1653.31 907.714 1662.37 906.29 1666.18 906.226C1663.5 906.802 1656.37 907.692 1656.26 908.789C1656.14 909.885 1661.54 909.831 1662.86 909.693C1670.84 908.853 1686.38 905.862 1686.38 905.862" fill="#FCFCFC"/>
<path d="M1686.34 946.965C1686.34 947.8 1687.43 960.084 1687.43 960.084L1664.27 965.115L1662.7 953.917" fill="#FCFCFC"/>
<path d="M1633.26 791.431C1633.26 791.431 1671.56 799.64 1676.52 809.526C1685.65 827.714 1683.96 867.514 1685.47 880.853C1687.84 901.854 1689.54 953.491 1689.54 953.491L1659.99 958.594C1659.99 958.594 1650.12 911.063 1647.99 892.788C1645.84 874.374 1641.99 818.877 1641.99 818.877" fill="#FCFCFC"/>
<path d="M1621.2 1145.34L1623.66 1183.46L1623.53 1196.82L1669.33 1200.09C1670.6 1200.09 1671.04 1196 1670.15 1195.66L1641.76 1183.59L1645.45 1148.23" fill="#FCFCFC"/>
<path d="M1622.08 1185.54C1622.08 1185.54 1621.72 1182.44 1623.18 1182.44C1624.65 1182.44 1624.75 1183.83 1626.26 1184.22C1629.13 1184.98 1635.46 1184.3 1641.07 1182.35C1641.75 1182.11 1641.62 1179.45 1643.68 1179.45C1645.75 1179.45 1645.32 1182.64 1647.48 1183.65C1649.64 1184.66 1666.61 1193.17 1671.21 1195.16C1675.11 1196.84 1677.76 1201.98 1670.93 1201.98H1621.05C1620.46 1201.98 1619.98 1201.5 1619.98 1200.91V1197.88C1620.62 1191.23 1622.08 1185.54 1622.08 1185.54Z" fill="#FCFCFC"/>
<path d="M1619.98 1199.13H1675.14V1200.94C1675.14 1201.52 1674.67 1201.98 1674.1 1201.98H1619.98V1199.13Z" fill="#FCFCFC"/>
<path d="M1654.07 1186.92C1653.45 1187.29 1652.85 1187.73 1652.34 1188.24C1652.09 1188.49 1651.86 1188.75 1651.64 1189.03C1651.4 1189.32 1651.1 1189.71 1651.1 1190.11C1651.09 1190.36 1651.37 1190.49 1651.58 1190.38C1651.75 1190.3 1651.87 1190.15 1651.99 1190.01C1652.04 1189.95 1652.09 1189.89 1652.14 1189.83C1652.17 1189.79 1652.21 1189.75 1652.24 1189.71C1652.23 1189.72 1652.33 1189.59 1652.29 1189.64C1652.5 1189.37 1652.72 1189.11 1652.96 1188.87C1653.43 1188.39 1653.92 1187.95 1654.46 1187.58C1654.62 1187.46 1654.7 1187.24 1654.59 1187.06C1654.49 1186.88 1654.25 1186.81 1654.07 1186.92Z" fill="#FCFCFC"/>
<path d="M1651.72 1184.85C1650.9 1185.4 1650.14 1186.03 1649.49 1186.77C1649.16 1187.14 1648.86 1187.53 1648.57 1187.93C1648.28 1188.33 1647.97 1188.8 1647.89 1189.3C1647.85 1189.6 1648.17 1189.82 1648.42 1189.6C1648.76 1189.29 1649 1188.85 1649.25 1188.46C1649.5 1188.06 1649.78 1187.67 1650.07 1187.3C1650.66 1186.56 1651.3 1185.85 1651.99 1185.2C1652.18 1185.03 1651.93 1184.7 1651.72 1184.85Z" fill="#FCFCFC"/>
<path d="M1556.46 1145.34L1551.97 1183.46L1551.84 1196.82L1597.64 1200.09C1598.91 1200.09 1599.35 1196 1598.46 1195.66L1570.07 1183.59L1580.71 1148.23" fill="#FCFCFC"/>
<path d="M1550.4 1185.54C1550.4 1185.54 1550.04 1182.44 1551.5 1182.44C1552.96 1182.44 1553.07 1183.83 1554.57 1184.22C1557.44 1184.98 1563.77 1184.3 1569.38 1182.35C1570.07 1182.11 1569.94 1179.45 1572 1179.45C1574.06 1179.45 1573.64 1182.64 1575.8 1183.65C1577.96 1184.66 1594.93 1193.17 1599.53 1195.16C1603.43 1196.84 1606.07 1201.98 1599.24 1201.98H1549.37C1548.78 1201.98 1548.3 1201.5 1548.3 1200.91V1197.88C1548.94 1191.23 1550.4 1185.54 1550.4 1185.54Z" fill="#FCFCFC"/>
<path d="M1548.3 1199.13H1603.46V1200.94C1603.46 1201.52 1602.99 1201.98 1602.42 1201.98H1548.3V1199.13Z" fill="#FCFCFC"/>
<path d="M1582.38 1186.92C1581.76 1187.29 1581.16 1187.73 1580.65 1188.24C1580.4 1188.49 1580.17 1188.75 1579.95 1189.03C1579.71 1189.32 1579.42 1189.71 1579.41 1190.11C1579.4 1190.36 1579.68 1190.49 1579.89 1190.38C1580.07 1190.3 1580.18 1190.15 1580.3 1190.01C1580.36 1189.95 1580.41 1189.89 1580.45 1189.83C1580.49 1189.79 1580.52 1189.75 1580.55 1189.71C1580.54 1189.72 1580.64 1189.59 1580.6 1189.64C1580.81 1189.37 1581.04 1189.11 1581.27 1188.87C1581.74 1188.39 1582.23 1187.95 1582.77 1187.58C1582.94 1187.46 1583.01 1187.24 1582.9 1187.06C1582.8 1186.88 1582.56 1186.81 1582.38 1186.92Z" fill="#FCFCFC"/>
<path d="M1580.03 1184.85C1579.21 1185.4 1578.45 1186.03 1577.8 1186.77C1577.47 1187.14 1577.17 1187.53 1576.88 1187.93C1576.59 1188.33 1576.28 1188.8 1576.21 1189.3C1576.16 1189.6 1576.48 1189.82 1576.73 1189.6C1577.08 1189.29 1577.31 1188.85 1577.56 1188.46C1577.81 1188.06 1578.09 1187.67 1578.38 1187.3C1578.97 1186.56 1579.61 1185.85 1580.3 1185.2C1580.49 1185.03 1580.24 1184.7 1580.03 1184.85Z" fill="#FCFCFC"/>
<path d="M1625.33 900.04C1625.33 900.04 1629.48 931.803 1625.33 960.804C1614.47 1028.92 1583.44 1174.81 1583.44 1174.81H1538.48C1538.48 1174.81 1551.7 1018.04 1555.01 965.704C1556.01 949.879 1556.69 930.225 1579.59 907.237" fill="#FCFCFC"/>
<path d="M1665.85 907.237C1680.3 1002.05 1659.87 1174.81 1659.87 1174.81H1614.95L1608.74 971.45C1608.74 971.45 1597.82 923.781 1608.41 901.881" fill="#FCFCFC"/>
<path d="M1610.85 1040.39C1610.85 1040.39 1622.79 956.983 1622.79 923.874" stroke="#FCFCFC" stroke-miterlimit="10"/>
<path d="M1630.14 923.875C1630.14 923.875 1627.07 952.922 1621.2 952.922" stroke="#FCFCFC" stroke-miterlimit="10"/>
<path d="M1545.46 1174.81L1565.47 965.704C1565.47 965.704 1571.35 934.105 1590.06 907.237" stroke="#FCFCFC" stroke-miterlimit="10"/>
<path d="M1621.2 1174.92L1614.47 1014.59" stroke="#FCFCFC" stroke-miterlimit="10"/>
<path d="M1580.83 811.827C1585.2 792.571 1588.73 794.825 1605.49 790.678C1605.49 790.678 1616.35 789.595 1623.87 790.208C1626.9 790.454 1628.46 790.714 1633.25 791.429C1640.22 797.877 1660.66 816.92 1663.15 845.912C1665.1 868.612 1665.51 925.852 1665.51 925.852C1665.51 925.852 1605.91 931.116 1568.59 922.624C1568.59 899.74 1574.46 839.862 1580.83 811.827Z" fill="#FCFCFC"/>
<path d="M1605.49 790.678C1612.05 816.184 1608.97 866.171 1604.71 944.348C1589.75 942.722 1560.49 939.483 1560.49 939.483C1560.49 939.483 1564.34 833.007 1568.59 823.342C1576.16 806.087 1605.49 790.678 1605.49 790.678Z" fill="#FCFCFC"/>
<path d="M1633.26 791.431C1633.26 791.431 1643.76 803.915 1639.53 946.967C1651.13 946.967 1665.31 944.776 1672.92 941.418C1674.84 879.772 1666.57 813.266 1666.57 813.266L1633.26 791.431Z" fill="#FCFCFC"/>
<path d="M1539.38 924.477L1563.97 970.863L1630.39 935.651L1605.8 889.265L1539.38 924.477Z" fill="#FCFCFC"/>
<path d="M1621.84 907.226C1622.79 906.72 1624 907.144 1624.55 908.171C1625.09 909.199 1624.76 910.443 1623.81 910.948C1622.86 911.454 1621.64 911.029 1621.1 910.001C1620.55 908.973 1620.88 907.73 1621.84 907.226ZM1622.31 913.376C1623.18 913.544 1624.09 913.449 1624.9 913.017C1626.92 911.949 1627.62 909.325 1626.46 907.155C1625.31 904.985 1622.75 904.091 1620.74 905.157C1619.92 905.591 1619.33 906.287 1618.99 907.101L1614.69 899.002C1614.17 898.012 1612.94 897.635 1611.95 898.159L1609.23 899.603L1623.04 925.662L1625.76 924.218C1626.75 923.693 1627.13 922.464 1626.61 921.474L1622.31 913.376Z" fill="#FCFCFC"/>
<path d="M1576.13 937.618L1581.11 946.95C1581.11 946.95 1586.64 948.955 1588.94 952.671C1590.11 954.546 1591.46 956.253 1591.46 956.253L1595.28 954.424C1595.28 954.424 1595.76 959.842 1594.57 961.052C1594.13 961.498 1593.08 961.682 1591.52 961.682C1591.98 963.291 1590.31 964.796 1588.71 964.185C1589.85 966.228 1587.29 968.093 1585.12 965.927C1585.32 968.192 1582.96 968.958 1580.74 968.33C1578.31 967.642 1574.5 965.518 1572.95 962.915C1571.4 960.311 1569.51 956.458 1569.51 956.458L1564.56 947.239" fill="#FCFCFC"/>
<path d="M1579.42 938.042L1582.24 944.677L1555.88 960.289L1549.94 945.765" fill="#FCFCFC"/>
<path d="M1591.11 956.298C1591.53 956.626 1591.9 957.019 1592.27 957.42C1592.6 957.852 1592.96 958.249 1593.12 958.926C1593.15 959.091 1593.18 959.326 1593.04 959.578C1592.91 959.804 1592.83 959.83 1592.71 959.965C1592.52 960.201 1592.25 960.37 1591.97 960.54C1591.38 960.829 1590.67 960.827 1590.07 960.647C1588.92 960.209 1588.1 959.425 1587.41 958.605C1586.69 957.788 1586.15 956.881 1585.57 955.984C1586.44 956.617 1587.2 957.366 1587.97 958.05C1588.74 958.728 1589.55 959.383 1590.39 959.681C1590.8 959.816 1591.2 959.811 1591.57 959.669C1591.75 959.57 1591.94 959.492 1592.1 959.32C1592.17 959.262 1592.31 959.135 1592.31 959.135C1592.32 959.167 1592.35 959.11 1592.34 959.024C1592.32 958.655 1592.08 958.14 1591.86 957.693C1591.64 957.219 1591.36 956.774 1591.11 956.298Z" fill="#FCFCFC"/>
<path d="M1590.47 832.707C1584.99 845.911 1570.48 888.409 1570.48 888.409L1581.2 940.953L1546.89 958.18C1546.89 958.18 1527.72 904.255 1527.72 888.827C1527.72 873.399 1546.1 829.222 1559.72 809.895C1570.38 794.784 1594.71 792.449 1605.49 790.678" fill="#FCFCFC"/>
<path d="M1574.53 908.25L1571.13 888.409L1589.14 837.59" stroke="#FCFCFC" stroke-miterlimit="10"/>
<path d="M1632.4 785.167L1631.18 798.405C1631.18 798.405 1629.85 803.728 1619.96 800.785C1612.07 798.433 1608.67 794.36 1607.51 792.574C1607.17 792.057 1607.11 791.397 1607.33 790.801L1615.44 768.266" fill="#FCFCFC"/>
<path d="M1642.8 767.559C1642.89 766.801 1643.85 766.45 1644.6 766.598C1645.66 766.809 1646.52 767.677 1646.95 768.676C1647.37 769.674 1647.44 770.79 1647.41 771.877C1647.38 772.886 1647.25 773.93 1646.73 774.799C1645.81 776.34 1643.61 776.955 1642.03 776.114" fill="#FCFCFC"/>
<path d="M1642.72 753.225C1642.72 753.225 1647.56 777.542 1643.82 782.244C1638.21 789.288 1625.89 789.116 1620.91 785.411C1616.74 782.303 1614.09 766.835 1614.33 762.874C1614.97 752.126 1637.41 747.228 1642.72 753.225Z" fill="#FCFCFC"/>
<path d="M1605.29 749.54C1607.11 744.625 1610.63 740.412 1615.97 737.986C1618.04 737.049 1620.38 736.441 1622.57 737.007C1624.38 737.473 1625.98 738.71 1627.85 738.878C1629.44 739.023 1630.98 738.362 1632.52 737.889C1636.46 736.675 1640.78 736.695 1644.71 737.946C1646.19 738.416 1647.68 739.104 1648.6 740.347C1651.94 744.834 1647.31 750.789 1643.56 753.281C1638.25 756.801 1631.28 756.245 1625.2 756.593C1623.92 756.665 1622.61 756.749 1621.47 757.337C1618.51 758.876 1618.16 762.895 1618.14 766.234C1618.13 769.611 1617.38 771.646 1615.58 774.343C1614.58 775.845 1612.28 778.766 1610.87 780.455C1609.95 776.295 1607.73 772.559 1606.04 768.65C1603.4 762.54 1603.08 755.519 1605.29 749.54Z" fill="#FCFCFC"/>
<path d="M1633.46 787.628C1633.46 787.628 1626.83 788.064 1622.27 785.381C1617.88 782.799 1616.66 777.044 1616.66 777.044" stroke="#FCFCFC" stroke-miterlimit="10" stroke-linejoin="round"/>
<path d="M1619.92 769.392C1619.46 768.477 1617.78 767.227 1616.82 767.272C1615.85 767.318 1614.94 767.839 1614.23 768.553C1610.87 771.9 1613.89 778.855 1618.75 778.398C1620.53 778.231 1620.19 775.863 1620.19 775.863" fill="#FCFCFC"/>
<path d="M1636.36 765.066C1636.36 765.066 1639.58 770.746 1639.51 772.1C1639.44 773.452 1635.83 773.941 1635.83 773.941" stroke="#FCFCFC" stroke-miterlimit="10" stroke-linejoin="round"/>
<path d="M1629.91 766.693C1630.01 767.311 1629.71 767.874 1629.24 767.949C1628.77 768.023 1628.31 767.582 1628.21 766.964C1628.11 766.345 1628.41 765.783 1628.88 765.708C1629.35 765.632 1629.81 766.074 1629.91 766.693Z" fill="#FCFCFC"/>
<path d="M1643.04 764.5C1643.14 765.119 1642.84 765.681 1642.37 765.755C1641.9 765.83 1641.44 765.39 1641.34 764.771C1641.24 764.152 1641.54 763.589 1642.01 763.515C1642.48 763.439 1642.94 763.881 1643.04 764.5Z" fill="#FCFCFC"/>
<path d="M1624.49 761.99C1624.64 761.69 1624.79 761.394 1624.95 761.101C1625.01 760.992 1625.07 760.879 1625.17 760.807C1625.29 760.722 1625.45 760.706 1625.6 760.695C1626.78 760.61 1627.97 760.658 1629.14 760.836C1629.67 760.917 1630.3 760.977 1630.8 761.181C1631.47 761.452 1631.37 761.455 1631.07 762.125C1631.04 762.192 1631.01 762.262 1630.95 762.306C1630.86 762.379 1630.72 762.357 1630.6 762.331C1628.68 761.929 1626.67 761.921 1624.74 762.307C1624.64 762.327 1624.51 762.338 1624.46 762.251C1624.41 762.18 1624.45 762.085 1624.49 761.99Z" fill="#FCFCFC"/>
<path d="M1643.68 759.958C1643.51 759.692 1643.33 759.431 1643.15 759.175C1643.08 759.08 1643 758.981 1642.91 758.929C1642.8 758.869 1642.67 758.885 1642.56 758.902C1641.61 759.043 1640.69 759.317 1639.81 759.715C1639.41 759.897 1638.93 760.075 1638.58 760.371C1638.11 760.762 1638.19 760.746 1638.56 761.346C1638.59 761.406 1638.63 761.468 1638.69 761.501C1638.77 761.553 1638.88 761.505 1638.97 761.457C1640.39 760.696 1641.96 760.304 1643.55 760.314C1643.64 760.315 1643.74 760.3 1643.76 760.207C1643.79 760.127 1643.74 760.042 1643.68 759.958Z" fill="#FCFCFC"/>
<path d="M1640.62 776.651L1629.41 777.548C1629.41 777.548 1630.77 783.35 1636.19 782.916C1641 782.532 1640.62 776.651 1640.62 776.651Z" fill="#FCFCFC"/>
</mask>
<g mask="url(#mask3_35_652)">
<rect x="1480.48" y="691.068" width="493.759" height="554.717" fill="#FCFCFC"/>
</g>
<circle cx="1800.91" cy="780.396" r="37.9623" fill="#FCFCFC"/>
<circle cx="1623.75" cy="761.789" r="37.9623" fill="#FCFCFC"/>
<path d="M1610.4 1041.91C1610.14 1050.24 1607.48 1057.68 1605.75 1065.74C1605.11 1068.69 1604.69 1071.71 1604.03 1074.65C1603.29 1077.89 1603.14 1081.17 1602.47 1084.4C1601.37 1089.75 1600.6 1095.02 1599.85 1100.42C1598.89 1107.41 1595.99 1114.16 1594.34 1121.03C1593.42 1124.85 1592.81 1128.72 1591.79 1132.53C1590.97 1135.57 1591.41 1138.5 1591.1 1141.58C1590.47 1147.85 1588.09 1153.76 1586.67 1159.87C1585.8 1163.59 1584.81 1167.33 1583.72 1170.99C1583.52 1171.67 1583.39 1174.65 1582.63 1174.98C1580.05 1176.14 1576.54 1176.37 1573.72 1176.57C1571.19 1176.75 1570.72 1179.52 1572.86 1180.53C1575.11 1181.6 1576.62 1184.08 1578.58 1185.69C1579.4 1186.36 1580.87 1186.6 1581.86 1186.88C1583.24 1187.26 1584.13 1188.21 1585.41 1188.67C1586.79 1189.17 1587.85 1190.54 1589 1191.39C1590.34 1192.4 1592.16 1192.69 1593.65 1193.39C1595.43 1194.23 1597.48 1194.48 1599.23 1195.36C1599.9 1195.69 1602.24 1196.83 1602.34 1197.67C1602.59 1199.95 1603.29 1200.97 1600.91 1201.7C1598.23 1202.52 1594.72 1202.08 1592.03 1201.63C1587.87 1200.94 1584.32 1202.35 1580.31 1202.93C1576.71 1203.44 1572.94 1203.1 1569.31 1202.81C1565.02 1202.46 1560.56 1203.25 1556.24 1203.25C1554.88 1203.25 1553.29 1202.83 1551.92 1202.62C1551.2 1202.51 1547.5 1202.05 1547.18 1201.32C1546.66 1200.13 1547.47 1199 1547.87 1197.98C1548.45 1196.49 1548.89 1194.86 1549.13 1193.27C1549.59 1190.12 1549.4 1187.13 1550.37 1184.03C1551.01 1181.96 1552.21 1180.17 1551.07 1178.12C1550.14 1176.45 1547.55 1176.03 1545.8 1176.33C1543.4 1176.75 1538.98 1176.29 1538.27 1173.57C1537.8 1171.79 1538.56 1170.42 1538.71 1168.69C1539.42 1160.58 1540.28 1152.23 1540.28 1144.06C1540.28 1138.69 1540.15 1133.34 1540.83 1128.03C1541.82 1120.37 1542.5 1112.57 1542.78 1104.86C1542.92 1101.12 1542.52 1097.33 1542.83 1093.59C1543.22 1089 1544.14 1084.38 1544.78 1079.82C1545.95 1071.52 1546.04 1063.13 1546.87 1054.81C1547.46 1048.78 1548.34 1042.92 1549.13 1036.93C1549.53 1033.85 1549.33 1031.08 1549.28 1028.02C1549.23 1024.69 1549.74 1021.31 1550.21 1018.02" stroke="black" stroke-width="4" stroke-linecap="round"/>
<path d="M1549.66 1019.29C1550.53 1015.71 1550.78 1012.27 1550.78 1008.6C1550.78 1006.74 1551.23 1004.91 1551.26 1003.03C1551.29 1001.39 1551.65 999.771 1551.83 998.143C1552.32 993.624 1552.18 989.076 1553.1 984.591C1553.55 982.386 1553.41 980.221 1553.59 977.994C1553.79 975.473 1554.03 972.983 1554.31 970.469C1554.67 967.31 1554.79 964.012 1554.79 960.832C1554.79 959.725 1554.96 958.461 1554.15 957.578C1553.62 956.994 1553.06 956.552 1552.47 956.062C1551.37 955.157 1550.15 955.733 1549.27 956.615C1548.28 957.602 1547.69 958.268 1546.29 957.988" stroke="black" stroke-width="4" stroke-linecap="round"/>
<path d="M1546.35 957.45C1545.28 956.754 1545.19 954.88 1544.86 953.71C1544.48 952.386 1544.14 951.069 1543.8 949.721C1543.51 948.566 1542.88 947.602 1542.6 946.466C1542.24 945.038 1541.28 943.788 1540.62 942.49C1539.87 941.025 1539.42 939.511 1539.01 937.919C1537.88 933.507 1537.27 929.025 1535.76 924.704C1534.26 920.446 1532.9 916.141 1531.78 911.766C1531.03 908.817 1529.72 906.005 1529.02 903.053C1527.12 895.015 1527.15 886.807 1528.28 878.687C1528.53 876.88 1528.66 875.045 1529.02 873.257C1529.53 870.761 1531.05 868.178 1532.03 865.887C1533.88 861.574 1535.99 857.325 1537.75 852.991C1538.26 851.729 1538.58 850.344 1539.18 849.126C1542.29 842.777 1544.52 835.947 1546.96 829.317C1547.66 827.416 1548.27 825.436 1549.48 823.79C1550.31 822.661 1551.26 821.649 1552.14 820.563C1554.91 817.157 1556.94 813.086 1559.59 809.564C1560.37 808.537 1561.2 807.316 1562.5 807.043" stroke="black" stroke-width="4" stroke-linecap="round"/>
<path d="M1562.18 807.252C1564.52 805.679 1566.06 803.305 1567.82 801.145C1570.4 797.968 1574.69 797.547 1578.41 796.781C1581.26 796.195 1584.14 795.838 1586.98 795.273C1589.1 794.853 1591.15 794.421 1593.23 793.866C1595.61 793.232 1598.1 793.003 1600.4 792.139" stroke="black" stroke-width="4" stroke-linecap="round"/>
<path d="M1600.59 792.238C1599.27 790.359 1597.98 788.408 1596.42 786.719C1595.27 785.487 1594.18 784.17 1593.14 782.847C1592.62 782.179 1592.06 781.55 1591.51 780.9C1590.76 780.004 1590.24 778.932 1589.65 777.927C1588.27 775.569 1587.19 773.263 1586.59 770.579C1585.99 767.874 1585.6 765.124 1585.79 762.353C1585.89 760.896 1586.13 759.449 1586.09 757.984C1586.05 756.916 1585.86 755.862 1585.89 754.791C1585.92 753.757 1585.89 752.683 1586.03 751.657C1586.14 750.805 1586.58 749.994 1586.95 749.229C1587.93 747.168 1589.02 745.15 1589.91 743.047" stroke="black" stroke-width="4" stroke-linecap="round"/>
<path d="M1589.07 743.986C1590.02 742.419 1591.39 741.399 1592.46 739.949C1593.78 738.146 1595.41 736.843 1597.14 735.395C1600.68 732.437 1604.29 729.051 1608.38 726.848C1609.25 726.383 1610.26 726.191 1611.21 725.974C1613.24 725.507 1615.29 725.01 1617.33 724.605C1620.46 723.987 1623.19 724.323 1626.28 724.807C1628.8 725.201 1631.36 725.594 1633.8 726.332C1635.3 726.787 1636.95 726.851 1638.49 727.185C1639.85 727.481 1640.95 727.983 1642.25 728.486C1644.42 729.32 1646.8 730.235 1648.63 731.671C1651.31 733.784 1653.73 736.218 1655.96 738.805C1657.58 740.686 1657.97 743.686 1658.41 746.039C1659.04 749.502 1659.86 752.947 1660.13 756.47C1660.39 759.783 1660.74 763.058 1660.74 766.396C1660.74 769.125 1659.67 771.447 1659.02 774.057C1658.69 775.368 1658.1 776.317 1657.53 777.511C1656.99 778.649 1656.65 779.881 1656.1 781.022C1655.21 782.86 1654.31 784.695 1653.37 786.495C1652.48 788.205 1650.32 789.763 1648.73 790.824C1647.64 791.549 1646.5 792.692 1645.4 793.247" stroke="black" stroke-width="4" stroke-linecap="round"/>
<path d="M1645.22 793.201C1647.24 794.763 1649.81 796.026 1652.21 796.905C1654.07 797.586 1656.06 797.905 1657.92 798.597C1659.88 799.327 1661.91 799.732 1663.88 800.499C1666.25 801.426 1668.78 802.41 1670.99 803.693C1674.67 805.832 1676.97 809.378 1678.91 813.024C1679.5 814.133 1679.6 815.516 1679.86 816.728C1680.19 818.247 1680.6 819.749 1680.9 821.273C1681.44 823.954 1682.59 826.431 1682.89 829.182C1683.21 832.137 1683.81 835.003 1684.24 837.942C1684.8 841.807 1684.87 845.81 1684.55 849.705C1684.05 855.713 1684.33 861.837 1684.33 867.865C1684.33 870.662 1684.59 873.413 1684.96 876.185C1685.29 878.655 1685.29 881.245 1685.77 883.683C1686.12 885.483 1686.67 887.081 1686.67 888.959C1686.67 889.839 1686.85 892.472 1686.85 891.592" stroke="black" stroke-width="4" stroke-linecap="round"/>
<path d="M1686.66 892.553C1688.83 891.364 1691.18 890.428 1693.42 889.365C1694.86 888.68 1696.13 887.628 1697.6 887.012C1698.75 886.527 1699.99 886.19 1701.18 885.812C1704.02 884.907 1707 884.382 1709.86 883.488C1713.14 882.46 1716.4 881.365 1719.79 880.722C1724.77 879.776 1729.36 878.216 1733.98 876.16C1735.49 875.49 1737.04 875.077 1738.08 873.692C1739.53 871.757 1740.26 869.252 1741.01 866.989C1742.71 861.88 1745.97 857.527 1747.81 852.45C1749.27 848.42 1750.96 844.475 1752.48 840.466C1753.97 836.536 1755.25 832.642 1757.29 828.952C1758.86 826.114 1761.07 823.436 1763.21 821.01C1764.54 819.508 1765.72 817.902 1767.13 816.477C1768.27 815.328 1769.53 814.309 1770.65 813.135C1771.74 811.987 1772.64 810.97 1773.93 810.11C1774.83 809.513 1775.66 808.848 1776.54 808.199" stroke="black" stroke-width="4" stroke-linecap="round"/>
<path d="M1740.52 870.266C1739.56 871.079 1738.62 871.957 1737.84 872.953C1737.64 873.21 1737.43 873.603 1737.43 873.925" stroke="black" stroke-width="4" stroke-linecap="round"/>
<path d="M1775.8 808.196C1771.45 805.943 1768.55 801.641 1766.37 797.372C1765.28 795.221 1765.04 792.78 1764.73 790.413C1764.41 788.015 1764.02 785.627 1763.72 783.229C1763.45 781.028 1763.48 778.804 1763.48 776.591C1763.48 774.019 1763.54 771.181 1764.22 768.696C1765.1 765.492 1766.87 763.097 1768.82 760.515C1769.72 759.327 1770.3 757.851 1771.47 756.876C1772.95 755.649 1774.33 754.543 1775.64 753.149C1777.83 750.817 1780.95 748.56 1783.86 747.256C1786.92 745.887 1790.22 744.679 1793.46 743.773C1795.54 743.194 1797.23 743.226 1799.33 743.305C1803.15 743.447 1806.77 744.158 1810.55 744.622C1811.64 744.756 1812.65 744.629 1813.71 744.951C1814.99 745.341 1816.41 745.688 1817.61 746.268C1821.27 748.052 1825.14 749.112 1828.22 751.919C1830.6 754.088 1832.16 756.833 1834.06 759.372C1836.41 762.497 1837.7 765.757 1838.43 769.58C1839.09 773 1840.18 776.944 1839.41 780.395C1838.99 782.285 1838.04 784.006 1837.75 785.933C1837.46 787.848 1837.01 789.74 1836.76 791.661C1836.46 793.955 1835.69 796.209 1835.31 798.499C1835.06 799.999 1833.88 801.392 1833.02 802.615C1832.46 803.4 1831.94 804.315 1831.26 804.998C1830.81 805.442 1829.9 805.581 1829.31 805.7" stroke="black" stroke-width="4" stroke-linecap="round"/>
<path d="M1829.72 805.895C1833.26 808.167 1837.58 809.457 1840.66 812.459C1843.16 814.886 1845.39 817.127 1847.28 820.068C1848.28 821.633 1849.58 822.87 1850.48 824.517C1851.73 826.798 1853.11 829.191 1854.62 831.313C1856.79 834.368 1859.12 837.556 1860.36 841.134C1861.17 843.49 1861.97 845.853 1862.75 848.221C1863.52 850.574 1863.7 853.049 1864.5 855.393C1864.83 856.359 1865.93 859.509 1864.72 860.037C1863.93 860.381 1862.74 860.815 1861.89 860.815" stroke="black" stroke-width="4" stroke-linecap="round"/>
<path d="M1861.4 861.031C1861.88 862.733 1862.3 864.481 1862.91 866.145C1863.17 866.844 1863.51 867.456 1863.61 868.201C1863.73 869.133 1863.8 870.098 1864.02 871.013C1864.49 873.043 1865.31 874.966 1865.81 876.997C1866.29 879.013 1866.64 881.058 1866.83 883.123C1867.15 886.603 1867.15 890.201 1866.83 893.678C1866.51 897.107 1866.28 900.516 1865.12 903.783C1864.43 905.74 1863.61 908.338 1861.54 909.224C1860.29 909.76 1858.85 909.938 1857.55 910.369C1856.17 910.831 1854.91 911.302 1853.49 911.658C1848.34 912.946 1843.94 912.106 1838.94 911.106" stroke="black" stroke-width="4" stroke-linecap="round"/>
<path d="M1838.76 911.75C1843.05 917.795 1847.66 924.13 1850.59 930.991C1851.69 933.584 1853.18 935.909 1854.43 938.419C1855.33 940.223 1855.83 942.22 1856.49 944.116C1857.88 948.086 1858.64 952.421 1859.65 956.506C1860.75 960.961 1862.11 965.447 1862.85 969.975C1863.9 976.318 1864.65 982.894 1865.04 989.302C1866.59 1015.03 1867.12 1040.81 1868.99 1066.51C1869.22 1069.63 1869.23 1073.15 1869.93 1076.2C1870.14 1077.15 1870.07 1078.06 1870.2 1079.01C1870.28 1079.64 1870.27 1080.45 1870.81 1079.72" stroke="black" stroke-width="4" stroke-linecap="round"/>
<path d="M1869.93 1078.4C1870.33 1081.4 1870.77 1084.3 1870.48 1087.32C1870.14 1090.83 1870.46 1094.51 1870.92 1097.98C1871.68 1103.59 1871.47 1109.24 1871.47 1114.89C1871.47 1121.96 1870.69 1129.05 1871.08 1136.13C1871.2 1138.18 1871.78 1140.11 1872.03 1142.14C1872.28 1144.22 1872.28 1146.34 1872.31 1148.44C1872.38 1153.84 1872.44 1159.26 1872.31 1164.67C1872.25 1167.12 1872.27 1170.24 1871.7 1172.55" stroke="black" stroke-width="4" stroke-linecap="round"/>
<path d="M1870.54 1173.23C1871.01 1172.7 1868.49 1172.21 1869.04 1171.86C1869.49 1171.57 1870.05 1171.4 1870.54 1171.16C1870.69 1171.08 1871.68 1170.78 1871.1 1170.65C1869.9 1170.38 1868.68 1170.52 1867.47 1170.28C1866.33 1170.05 1864.41 1169.72 1863.28 1170.04C1862.95 1170.14 1863.93 1172.33 1864 1172.6C1864.57 1174.96 1864.08 1177.6 1864.08 1179.99C1864.08 1182.82 1864.32 1185.64 1864.65 1188.44C1865.01 1191.46 1865.07 1194.5 1865.69 1197.49C1865.91 1198.58 1867.07 1201.3 1865.79 1202.18C1865.29 1202.52 1864.94 1203.04 1864.43 1203.38C1863.77 1203.82 1862.97 1204.07 1862.2 1204.25C1860.12 1204.73 1857.62 1204.17 1855.59 1203.71C1853.66 1203.28 1851.47 1203.28 1849.51 1203.25C1848.88 1203.24 1847.93 1203.3 1847.41 1202.88C1846.11 1201.82 1846.25 1200.56 1846.61 1199.11C1846.74 1198.58 1845.27 1198.89 1844.97 1199.12C1844.01 1199.85 1843.24 1201.09 1842.39 1201.96C1841.49 1202.88 1839.94 1202.92 1838.74 1203.17C1836.95 1203.55 1834.82 1202.95 1833.13 1202.46C1828.64 1201.16 1824.01 1201.8 1819.44 1201.35C1818.97 1201.31 1815.5 1200.51 1815.53 1200.43C1815.79 1199.87 1815.73 1199.18 1815.91 1198.59C1816.1 1197.97 1816.57 1197.16 1816.99 1196.64C1819.28 1193.84 1822.34 1192.95 1825.38 1191.22C1827.23 1190.16 1829.27 1189.51 1831.28 1188.82C1832.26 1188.48 1833.16 1188.02 1834.07 1187.52C1835.06 1186.98 1836.16 1186.66 1837.16 1186.14C1838.77 1185.32 1840.63 1184.8 1841.7 1183.26C1842.24 1182.48 1842.95 1181.57 1843.08 1180.61C1843.23 1179.41 1843.29 1178.16 1843.22 1176.95C1843.14 1175.66 1843.01 1174.35 1842.88 1173.06C1842.83 1172.48 1842.93 1170.77 1842.3 1170.43C1841.61 1170.05 1840.76 1170.13 1840.01 1169.92C1838.96 1169.63 1837.71 1169.25 1836.61 1169.37C1835.44 1169.5 1834.32 1169.84 1833.17 1169.47C1832.3 1169.19 1831.4 1168.8 1830.61 1168.35" stroke="black" stroke-width="4" stroke-linecap="round"/>
<path d="M1830.18 1168.06C1829.98 1165.66 1829.75 1163.29 1829.75 1160.86C1829.75 1156.3 1829.14 1151.86 1828.06 1147.45C1827.6 1145.56 1827.51 1143.64 1827.24 1141.73C1826.92 1139.49 1826.61 1137.27 1826.25 1135.04C1826.11 1134.17 1826.12 1133.29 1825.99 1132.41C1825.8 1131.21 1825.45 1130.04 1825.3 1128.82C1825.03 1126.76 1824.61 1124.71 1824.47 1122.63C1824.32 1120.38 1824.36 1118.14 1824.08 1115.88C1823.77 1113.43 1823.5 1111 1823.22 1108.54C1822.73 1104.27 1822.37 1099.95 1821.21 1095.79C1820.71 1093.98 1820.09 1092.24 1819.68 1090.4C1818.96 1087.13 1818.41 1083.82 1817.54 1080.59C1816.39 1076.31 1815.53 1071.84 1815.53 1067.39" stroke="black" stroke-width="4" stroke-linecap="round"/>
<path d="M1815.39 1069.83C1814.77 1067.63 1814.81 1065.17 1814.53 1062.9C1814.33 1061.33 1814.38 1059.74 1814.38 1058.15C1814.38 1054.83 1814.09 1051.71 1813.66 1048.43C1813.31 1045.67 1812.77 1042.95 1812.37 1040.2C1812.17 1038.83 1812.14 1037.44 1811.94 1036.08" stroke="black" stroke-width="4" stroke-linecap="round"/>
<path d="M1814.44 1064.04C1814.06 1065.7 1813.45 1067.31 1813.04 1068.97C1812.56 1070.97 1812.55 1072.86 1812.57 1074.91C1812.59 1078.39 1813.07 1081.85 1813.08 1085.34C1813.1 1090.46 1813.31 1095.56 1813.41 1100.69C1813.48 1104.18 1813.4 1107.65 1813.17 1111.14C1812.94 1114.85 1812.57 1118.6 1812.57 1122.32C1812.57 1126.12 1812.91 1129.91 1812.91 1133.72C1812.91 1138.03 1812.73 1142.33 1813 1146.63C1813.19 1149.51 1813.35 1152.39 1813.41 1155.28C1813.46 1157.57 1813.84 1159.82 1813.9 1162.08C1813.96 1163.88 1813.48 1166.08 1812.4 1167.54C1811.99 1168.09 1811.53 1168.61 1811.17 1169.19C1810.86 1169.67 1810.53 1170.91 1809.98 1171.15C1808.95 1171.61 1807.17 1171.64 1806.09 1171.37C1805.56 1171.24 1804.06 1171.14 1804.06 1170.44" stroke="black" stroke-width="4" stroke-linecap="round"/>
<path d="M1803.21 1170.26C1802.99 1173.14 1802.71 1175.94 1802.71 1178.84C1802.71 1181.28 1803.02 1183.55 1803.38 1185.94C1803.7 1188.15 1803.73 1190.3 1804.21 1192.5C1804.54 1194.01 1804.81 1195.55 1805.14 1197.07C1805.29 1197.74 1805.67 1198.77 1805.38 1199.46C1805.18 1199.92 1804.85 1200.32 1804.62 1200.76C1804.34 1201.3 1804.11 1202.85 1803.53 1203.11C1803.08 1203.31 1802.53 1203.19 1802.06 1203.2C1800.7 1203.23 1799.35 1203.44 1797.98 1203.46C1795.84 1203.5 1793.76 1203.84 1791.6 1203.79C1790.25 1203.75 1788.07 1203.94 1786.79 1203.28C1785.24 1202.47 1786.16 1199.58 1785.6 1198.14C1785.31 1197.41 1784.13 1197.52 1783.85 1198.16C1783.27 1199.53 1782.6 1200.22 1781.56 1201.26C1780.31 1202.5 1779.29 1203.96 1777.52 1204.41C1773.59 1205.41 1769.52 1203.88 1765.59 1203.31C1763.13 1202.96 1760.65 1202.88 1758.16 1203C1756.95 1203.05 1755.49 1203.24 1754.4 1202.63C1753.06 1201.88 1753.03 1200.26 1753.19 1198.81C1753.36 1197.3 1755.38 1196.04 1756.51 1195.28C1760.64 1192.47 1764.48 1189.23 1768.73 1186.56C1770.94 1185.17 1773.75 1185.08 1776.11 1183.94C1777.38 1183.32 1778.73 1182.96 1779.99 1182.29C1781.05 1181.73 1781.19 1181.02 1781.31 1179.81C1781.45 1178.46 1780.81 1176.89 1780.6 1175.56C1780.4 1174.27 1780.2 1172.94 1780.2 1171.64C1780.2 1171.2 1780.45 1170.44 1780.17 1170.03C1779.96 1169.7 1778.89 1169.71 1778.52 1169.63C1777.56 1169.41 1776.39 1169.34 1775.41 1169.26C1773.01 1169.06 1770.33 1167.97 1768.17 1169.59" stroke="black" stroke-width="4" stroke-linecap="round"/>
<path d="M1762.66 1191.45C1763.65 1191.07 1764.7 1190.95 1765.66 1190.45C1766.55 1189.97 1767.41 1189.59 1768.37 1189.28C1769.61 1188.88 1770.62 1188.31 1771.73 1187.64C1772.43 1187.21 1773.23 1187.09 1773.98 1186.78C1775.21 1186.27 1776.32 1185.61 1777.35 1184.77C1777.86 1184.35 1778.8 1183.74 1779.01 1183.11" stroke="black" stroke-width="4" stroke-linecap="round"/>
<path d="M1767.88 1169.88C1768.07 1163.9 1768.32 1158.23 1767.79 1152.28C1767.22 1145.98 1766.57 1139.7 1765.69 1133.44C1764.79 1126.99 1763.23 1120.58 1762.63 1114.1C1762.23 1109.8 1762.31 1105.5 1761.84 1101.2C1761.5 1098.14 1761.12 1094.79 1761.25 1091.72C1761.41 1088.04 1762.41 1084.48 1762.44 1080.73C1762.49 1074.34 1762.32 1068.07 1761.7 1061.71C1761.17 1056.35 1760.41 1051.01 1759.74 1045.66C1758.85 1038.49 1758.72 1031.23 1757.63 1024.09C1756.82 1018.81 1756.17 1013.79 1756.17 1008.45C1756.17 1002.63 1756.37 996.947 1756.19 991.132C1756 984.975 1756.34 978.8 1756.68 972.656C1757.09 965.101 1757.22 957.682 1758.07 950.159C1759.22 940.023 1760.55 929.991 1764.21 920.364C1766.14 915.279 1768.08 910.635 1768.65 905.095C1768.93 902.332 1768.72 899.854 1768.72 897.124C1768.72 894.203 1769.06 882.909 1766.02 882.04C1764.99 881.745 1758.7 890.734 1757.98 891.964C1755.19 896.721 1751.2 898.999 1745.82 900.308C1743.03 900.987 1739.81 902.144 1736.92 902.144C1733.65 902.144 1730.41 902.056 1727.16 902.469C1722.8 903.023 1718.31 902.307 1713.91 902.655C1710.25 902.945 1706.64 903.672 1703.04 904.328C1699.33 905.002 1695.42 906.26 1691.72 906.722C1689.98 906.939 1689.05 906.903 1688.19 908.442C1687.2 910.186 1685.47 913.138 1685.47 915.112C1685.47 920.382 1685.87 925.398 1686.81 930.59C1688.21 938.282 1688.81 945.724 1688.81 953.599" stroke="black" stroke-width="4" stroke-linecap="round"/>
<path d="M1689.38 909.326C1688.42 911.967 1687.23 914.325 1686.96 917.129C1686.82 918.591 1687.11 920.143 1687.21 921.595C1687.3 923.035 1687.31 924.535 1687.54 925.965C1687.68 926.779 1687.95 927.551 1688.05 928.378C1688.29 930.315 1688.01 932.423 1688.01 934.388" stroke="black" stroke-width="4" stroke-linecap="round"/>
<path d="M1688.8 953.258C1688.13 955.37 1688.3 957.844 1686.51 959.387C1684.81 960.848 1682.12 961.446 1680.03 962.058C1677.26 962.869 1674.27 963.96 1671.34 963.96" stroke="black" stroke-width="4" stroke-linecap="round"/>
<path d="M1670.4 964.006C1670.03 966.211 1669.62 968.429 1669.81 970.679C1669.96 972.429 1669.73 974.124 1669.86 975.865C1670.31 981.738 1670.65 987.496 1671.32 993.349C1671.89 998.337 1671.84 1003.73 1671.15 1008.71C1670.43 1013.81 1670.71 1019.03 1670.71 1024.18C1670.71 1028.71 1669.8 1033.11 1669.8 1037.66C1669.8 1042.11 1669.19 1046.51 1669.19 1050.94C1669.19 1058.45 1668.66 1065.91 1668.58 1073.41C1668.48 1083.15 1667.8 1092.86 1667.38 1102.6C1667.05 1110.17 1667.11 1117.68 1665.77 1125.17C1665 1129.49 1663.84 1133.74 1663.11 1138.07C1662.03 1144.4 1661.41 1150.81 1660.82 1157.2C1660.37 1162.18 1659.64 1167.14 1659.47 1172.15C1659.42 1173.64 1659.49 1175.13 1659.46 1176.62C1659.45 1177.1 1659.15 1178.86 1659.15 1177.47" stroke="black" stroke-width="4" stroke-linecap="round"/>
<path d="M1658.21 1177.99C1657.5 1177.43 1656.8 1176.87 1656.09 1176.32C1655.97 1176.23 1655.94 1176.18 1655.81 1176.18C1655.33 1176.16 1654.86 1176.12 1654.39 1176.08C1652.68 1175.92 1650.95 1175.76 1649.25 1175.54C1647.48 1175.32 1645.7 1174.61 1644.04 1175.65C1643.16 1176.2 1642.57 1177.35 1642.5 1178.37C1642.42 1179.45 1642.95 1179.93 1643.79 1180.52C1644.1 1180.74 1644.49 1180.73 1644.83 1180.95C1645.84 1181.63 1646.73 1182.54 1647.84 1183.04C1649.03 1183.58 1650.2 1184.14 1651.35 1184.77C1652.86 1185.59 1654.41 1186.4 1655.89 1187.29C1656.82 1187.85 1657.82 1188.31 1658.73 1188.91C1659.58 1189.48 1660.39 1190.09 1661.23 1190.67C1662.78 1191.74 1664.57 1192.25 1666.24 1193.07C1668.13 1193.99 1669.84 1195.2 1671.71 1196.16C1672.21 1196.42 1672.68 1196.76 1673.21 1196.97C1673.91 1197.24 1674.56 1197.52 1675.09 1198.08C1675.94 1198.97 1676.82 1200.47 1676.23 1201.72C1675.98 1202.26 1675.47 1202.53 1674.92 1202.69C1673.59 1203.07 1672.19 1203.08 1670.81 1203.21C1668.76 1203.42 1666.7 1203.28 1664.64 1203.36C1663.61 1203.4 1662.57 1203.48 1661.53 1203.44C1660.2 1203.39 1658.88 1203.08 1657.54 1202.97C1654.59 1202.73 1651.62 1202.13 1648.65 1202.12C1646.05 1202.1 1643.48 1202.26 1640.89 1202.31C1638.69 1202.36 1636.5 1202.52 1634.3 1202.6C1633.01 1202.65 1631.77 1203 1630.49 1203.15C1629.04 1203.31 1627.5 1203.35 1626.05 1203.12C1624.4 1202.86 1622.84 1202.25 1621.23 1201.82C1620.09 1201.52 1619.66 1201.74 1619.61 1200.4C1619.52 1198.26 1620.12 1196.21 1620.52 1194.14C1620.76 1192.9 1620.68 1191.76 1620.74 1190.52C1620.83 1188.32 1621.22 1186.06 1621.64 1183.9C1621.83 1182.91 1622.17 1181.95 1622.26 1180.95C1622.31 1180.39 1622.35 1179.85 1622.35 1179.29C1622.35 1178.99 1622.4 1178.63 1622.35 1178.35C1622.13 1177.08 1620.89 1176.16 1619.91 1175.48C1619.11 1174.92 1618.54 1174.88 1617.65 1174.74C1617.17 1174.67 1616.94 1174.55 1616.49 1174.74C1616.23 1174.85 1615.15 1174.85 1615.11 1174.94" stroke="black" stroke-width="4" stroke-linecap="round"/>
<path d="M1614.49 1175.12C1613.41 1170.46 1612.89 1166.62 1613.17 1161.9C1613.34 1159.07 1613.17 1156.27 1613 1153.44C1612.61 1147.2 1612.94 1140.91 1612.46 1134.67C1611.93 1127.76 1612.95 1121.06 1613.22 1114.19C1613.47 1107.88 1612.72 1101.85 1612.24 1095.61C1611.8 1089.99 1611.41 1084.22 1611.37 1078.58C1611.34 1075.49 1611.27 1072.37 1611.44 1069.28C1611.62 1065.93 1611.21 1062.6 1611.52 1059.26C1612.05 1053.55 1610.12 1036.39 1610.12 1042.12" stroke="black" stroke-width="4" stroke-linecap="round"/>
<path d="M1737.05 767.278C1737.1 767.314 1737.15 767.349 1737.2 767.385C1736.58 768.063 1735.15 769.438 1735.98 768.414C1736.24 768.093 1736.61 767.706 1737.05 767.278C1727.03 760.352 1716.87 753.753 1703.94 750.087C1693.07 747.004 1682.07 744.364 1670.92 741.84C1662.24 739.877 1652.86 737.671 1648.52 731.063C1632.54 706.766 1667.14 681.672 1691.34 667.902C1710.04 657.265 1733.12 654.251 1752.97 660.085C1773.16 666.019 1784.61 681.549 1783.85 699.18C1783.5 707.474 1778.01 714.413 1771.84 721.278C1766.32 727.421 1761.2 733.97 1756.74 740.583C1751.84 747.849 1747.05 755.035 1742.07 762.247C1741.19 763.516 1738.67 765.676 1737.05 767.278Z" fill="white"/>
<path d="M1740.14 769.425C1729.09 761.742 1718.21 754.131 1703.94 750.087C1693.07 747.004 1682.07 744.364 1670.92 741.84C1662.24 739.877 1652.86 737.671 1648.52 731.063C1632.54 706.766 1667.14 681.672 1691.34 667.902C1710.04 657.265 1733.12 654.251 1752.97 660.085C1773.16 666.019 1784.61 681.549 1783.85 699.18C1783.5 707.474 1778.01 714.413 1771.84 721.278C1766.32 727.421 1761.2 733.97 1756.74 740.583C1751.84 747.849 1747.05 755.035 1742.07 762.247C1740.96 763.854 1737.21 766.892 1735.98 768.414C1734.73 769.965 1738.65 766.015 1737.09 767.311" stroke="black" stroke-width="4" stroke-linecap="round"/>
<path d="M1672.33 710.228C1674.64 708.384 1680.73 702.928 1680 705.252C1678.98 708.513 1677.45 711.695 1676.97 714.995C1676.75 716.468 1676.33 720.077 1679.45 720.059C1680.87 720.05 1682.55 719.051 1683.52 718.406C1686.66 716.315 1689.5 713.736 1692.17 711.335C1694.28 709.429 1695.82 707.771 1696.65 705.506C1696.71 705.328 1697.05 708.005 1697.14 708.385C1697.37 709.354 1697.95 711.898 1699.85 711.882C1702.6 711.859 1706.98 707.479 1708.83 706.18C1710.24 705.188 1711.6 703.689 1712.51 705.303C1713.93 707.822 1714.84 711.273 1717.46 713.213C1722.32 716.804 1731.75 699.465 1735.37 703.336C1735.78 703.768 1736.58 705.521 1737.65 705.324C1740.46 704.804 1742.35 702.472 1744.82 701.45C1748.46 699.937 1747.8 704.214 1748.74 705.428C1749.16 705.958 1749.96 704.305 1750.27 703.663C1751.74 700.563 1752.71 697.413 1753.89 694.284" stroke="black" stroke-width="4" stroke-linecap="round"/>
</mask>
<g mask="url(#mask2_35_652)">
<rect width="666.067" height="731.851" transform="matrix(-1 0 0 1 2095.4 645.998)" fill="#2B2C30"/>
</g>
</g>
<defs>
<clipPath id="clip0_35_652">
<rect width="1920" height="1500" fill="white"/>
</clipPath>
</defs>
</svg>
