<svg width="216" height="150" viewBox="0 0 216 150" fill="none" xmlns="http://www.w3.org/2000/svg">
<path d="M28.9034 55.4902C38.9108 51.9162 45.5479 45.0585 56.9332 44.0235C59.2164 39.457 72.3391 41.9831 77.3185 39.4934C89.9943 33.1555 103.502 27.8011 116.957 22.2226C132.136 15.9286 149.385 11.7106 163.956 5.23484C174.256 0.657159 174.192 9.98753 181.793 14.0118C193.286 20.0962 201.795 36.6913 209.257 47.1379C217.995 59.3721 200.982 72.8755 193.401 78.8484C187.212 83.725 183.608 86.9035 176.98 91.1645C172.261 94.1979 170.027 93.358 165.088 95.553C152.501 101.147 138.195 104.504 125.875 111.691C110.462 120.682 23.8071 172.116 23.8071 129.387C23.8071 122.626 19.3281 113.158 15.0301 108.86C6.3533 100.183 10.3537 78.415 4.6959 68.231C-0.194864 59.4276 22.0573 57.9353 28.9034 55.4902Z" fill="black" stroke="black" stroke-width="7" stroke-linecap="round"/>
<path d="M60.0835 73.875C50.0403 75.1304 52.2192 95.4036 55.6229 101.53C61.2667 111.689 76.1414 107.626 76.1414 95.2855" stroke="white" stroke-width="7" stroke-linecap="round"/>
<path d="M81.4922 61.3828C81.7486 64.9732 82.6924 94.9908 86.8448 97.067" stroke="white" stroke-width="7" stroke-linecap="round"/>
<path d="M86.8477 88.1476C87.2276 84.3478 89.62 81.8069 92.2003 79.2266" stroke="white" stroke-width="7" stroke-linecap="round"/>
<path d="M93.9844 59.6016C96.0507 69.4165 101.121 78.0196 101.121 88.1489" stroke="white" stroke-width="7" stroke-linecap="round"/>
<path d="M111.824 50.6797C113.77 62.1084 115.393 74.8096 115.393 86.3639" stroke="white" stroke-width="7" stroke-linecap="round"/>
<path d="M115.395 56.0312C116.299 57.5938 128.563 72.0892 126.1 72.0892" stroke="white" stroke-width="7" stroke-linecap="round"/>
<path d="M118.961 73.8704C124.419 71.9211 136.803 64.3829 136.803 57.8125" stroke="white" stroke-width="7" stroke-linecap="round"/>
<path d="M138.589 41.7578C138.589 56.0178 137.011 71.13 140.373 84.5789" stroke="white" stroke-width="7" stroke-linecap="round"/>
<path d="M140.371 50.6787C144.893 47.4755 152.685 42.661 152.861 52.6612C152.919 56.0132 154.667 63.4479 151.076 65.3489C148.347 66.794 147.508 67.1344 147.508 70.305" stroke="white" stroke-width="7" stroke-linecap="round"/>
<path d="M149.293 70.3047C151.9 72.9114 163.982 81.01 159.998 81.01" stroke="white" stroke-width="7" stroke-linecap="round"/>
<path d="M161.781 34.6172C164.968 43.5146 165.804 59.3044 174.271 64.9488" stroke="white" stroke-width="7" stroke-linecap="round"/>
<path d="M156.43 34.6183C160.358 33.7118 163.65 31.1668 167.135 29.2656" stroke="white" stroke-width="7" stroke-linecap="round"/>
</svg>
