<svg width="811" height="195" viewBox="0 0 811 195" fill="none" xmlns="http://www.w3.org/2000/svg">
<path d="M44.8322 50.2891C40.8616 68.1567 28.4581 85.2854 28.4581 104.061C28.4581 112.347 25.645 122.405 23 130.341" stroke="black" stroke-width="45" stroke-linecap="round"/>
<path d="M48.4727 61.2031C54.0352 67.461 52.2831 78.9777 54.9415 86.573C56.5558 91.1854 59.1031 96.372 59.3888 101.229C60.0362 112.236 67.6769 121.646 70.3049 132.158" stroke="black" stroke-width="45" stroke-linecap="round"/>
<path d="M32.0964 110.335C25.3979 110.335 45.6108 110.14 52.1093 108.516" stroke="black" stroke-width="45" stroke-linecap="round"/>
<path d="M93.957 57.5703C95.0577 76.4197 95.7764 95.1962 95.7764 114.071C95.7764 119.648 97.5957 125.39 97.5957 115.385C97.5957 105.105 96.5895 99.3236 107.501 95.8778C113.885 93.8619 115.763 93.9313 120.338 98.5058C127.586 105.754 123.047 136.396 108.512 126.706" stroke="black" stroke-width="45" stroke-linecap="round"/>
<path d="M146.717 103.056C146.717 115.049 146.266 127.027 159.755 129.436C170.712 131.393 185.351 130.946 180.071 115.589C178 109.562 163.135 84.5413 153.59 93.3525C145.828 100.517 149.816 104.537 152.175 113.972" stroke="black" stroke-width="45" stroke-linecap="round"/>
<path d="M206.753 92.1406C204.057 97.8704 204.896 117.104 214.031 117.612C217.633 117.812 220.341 119.431 224.037 119.431C230.324 119.431 232.379 112.67 235.762 107.807C241.186 100.01 239.502 100.383 239.502 110.941C239.502 117.218 239.695 122.382 241.22 127.719C242.021 130.523 241.116 133.763 244.96 130.347C247.44 128.142 250.787 127.789 252.237 124.889" stroke="black" stroke-width="45" stroke-linecap="round"/>
<path d="M263.152 53.9375C272.653 81.3848 265.197 113.059 272.249 141.266" stroke="black" stroke-width="45" stroke-linecap="round"/>
<path d="M235.863 88.4971C249.865 87.1637 263.75 83.0391 277.708 83.0391" stroke="black" stroke-width="45" stroke-linecap="round"/>
<path d="M348.662 57.5718C343.851 57.5718 341.433 54.7807 338.555 58.4814C335.879 61.9222 334.742 66.6158 336.028 71.1158C338.984 81.4608 361.969 86.7656 370.899 92.9481C385.267 102.895 383.337 127.529 368.473 136.613C355.953 144.264 320.815 149.949 315.914 130.346" stroke="black" stroke-width="45" stroke-linecap="round"/>
<path d="M341.387 43.0156C344.863 57.3573 346.154 73.9978 346.845 88.4994C348.18 116.538 355.942 143.809 355.942 172.19" stroke="black" stroke-width="45" stroke-linecap="round"/>
<path d="M430.532 43.0156C415.417 43.0156 410.879 63.4732 405.062 73.9446C397.461 87.6251 397.643 112.898 403.646 126.706C413.149 148.561 444.158 154.074 450.545 128.525" stroke="black" stroke-width="45" stroke-linecap="round"/>
<path d="M479.659 24.8203C472.826 47.8809 477.84 78.6968 477.84 102.648C477.84 113.699 477.84 124.75 477.84 135.801" stroke="black" stroke-width="45" stroke-linecap="round"/>
<path d="M485.117 77.5831C489.368 74.1827 495.356 75.0021 499.672 72.125" stroke="black" stroke-width="45" stroke-linecap="round"/>
<path d="M521.5 23C516.107 60.7517 514.223 97.7506 514.223 135.8" stroke="black" stroke-width="45" stroke-linecap="round"/>
<path d="M546.977 37.5596C546.977 62.0188 551.928 84.7689 556.68 108.717C557.722 113.969 560.516 119.053 561.43 124.08C562.439 129.628 561.044 129.441 564.26 124.08C569.76 114.914 573.569 105.482 577.097 95.3746C579.133 89.5429 584.504 82.1368 585.082 76.0693C585.686 69.7234 584.7 62.5759 587.407 56.5618C588.683 53.7245 588.511 45.0783 590.237 47.6671C595.12 54.992 595.338 72.2751 596.099 81.0219C596.983 91.1818 600.347 100.549 602.972 110.334C604.566 116.275 606.069 132.239 611.564 121.25C624.737 94.903 625.209 60.9346 625.209 32.1016" stroke="black" stroke-width="45" stroke-linecap="round"/>
<path d="M668.867 32.1016C668.867 63.7302 661.59 158.337 661.59 126.708" stroke="black" stroke-width="45" stroke-linecap="round"/>
<path d="M677.969 35.7344C683.571 60.243 687.332 84.9455 694.747 109.115C695.455 111.421 704.912 132.896 699.801 130.341" stroke="black" stroke-width="45" stroke-linecap="round"/>
<path d="M663.414 97.5977C672.142 96.3508 680.249 92.0474 688.885 90.3203" stroke="black" stroke-width="45" stroke-linecap="round"/>
<path d="M717.992 32.1016C722.337 52.8615 722.956 74.1818 729.717 94.4649C731.606 100.132 730.339 106.176 730.829 112.052C731.061 114.837 734.773 127.521 730.728 119.43" stroke="black" stroke-width="45" stroke-linecap="round"/>
<path d="M727.09 39.3805C733.144 33.8763 740.556 27.1258 748.012 33.0127C753.001 36.951 758.132 42.987 763.477 46.2536C772.295 51.6423 782.031 67.5643 786.219 76.7783C790.773 86.7967 786.758 99.3457 778.84 106.798C772.994 112.3 768.583 113.367 760.849 115.793C753.405 118.129 751.486 120.755 745.283 124.89" stroke="black" stroke-width="45" stroke-linecap="round"/>
<path d="M45.0236 50.2891C41.053 68.1567 28.6495 85.2854 28.6495 104.061C28.6495 112.347 25.8364 122.405 23.1914 130.341" stroke="white" stroke-width="14" stroke-linecap="round"/>
<path d="M48.6641 61.2031C54.2266 67.461 52.4745 78.9777 55.1329 86.573C56.7472 91.1854 59.2945 96.372 59.5802 101.229C60.2276 112.236 67.8683 121.646 70.4963 132.158" stroke="white" stroke-width="14" stroke-linecap="round"/>
<path d="M32.2917 110.335C25.5933 110.335 45.8061 110.14 52.3046 108.516" stroke="white" stroke-width="14" stroke-linecap="round"/>
<path d="M94.1484 57.5703C95.2491 76.4197 95.9678 95.1962 95.9678 114.071C95.9678 119.648 97.7871 125.39 97.7871 115.385C97.7871 105.105 96.7809 99.3236 107.693 95.8778C114.076 93.8619 115.955 93.9313 120.529 98.5058C127.777 105.754 123.239 136.396 108.703 126.706" stroke="white" stroke-width="14" stroke-linecap="round"/>
<path d="M146.908 103.056C146.908 115.049 146.457 127.027 159.947 129.436C170.904 131.393 185.542 130.946 180.263 115.589C178.191 109.562 163.327 84.5413 153.781 93.3525C146.019 100.517 150.007 104.537 152.366 113.972" stroke="white" stroke-width="14" stroke-linecap="round"/>
<path d="M206.945 92.1406C204.248 97.8704 205.087 117.104 214.222 117.612C217.824 117.812 220.532 119.431 224.228 119.431C230.516 119.431 232.571 112.67 235.953 107.807C241.377 100.01 239.693 100.383 239.693 110.941C239.693 117.218 239.886 122.382 241.411 127.719C242.212 130.523 241.308 133.763 245.151 130.347C247.631 128.142 250.978 127.789 252.428 124.889" stroke="white" stroke-width="14" stroke-linecap="round"/>
<path d="M263.348 53.9375C272.849 81.3848 265.393 113.059 272.444 141.266" stroke="white" stroke-width="14" stroke-linecap="round"/>
<path d="M236.055 88.4971C250.056 87.1637 263.941 83.0391 277.9 83.0391" stroke="white" stroke-width="14" stroke-linecap="round"/>
<path d="M348.854 57.5718C344.042 57.5718 341.625 54.7807 338.746 58.4814C336.07 61.9222 334.934 66.6158 336.219 71.1158C339.175 81.4608 362.16 86.7656 371.09 92.9481C385.459 102.895 383.528 127.529 368.665 136.613C356.144 144.264 321.006 149.949 316.105 130.346" stroke="white" stroke-width="14" stroke-linecap="round"/>
<path d="M341.578 43.0156C345.055 57.3573 346.346 73.9978 347.036 88.4994C348.371 116.538 356.133 143.809 356.133 172.19" stroke="white" stroke-width="14" stroke-linecap="round"/>
<path d="M430.724 43.0156C415.608 43.0156 411.07 63.4732 405.253 73.9446C397.653 87.6251 397.835 112.898 403.838 126.706C413.34 148.561 444.349 154.074 450.737 128.525" stroke="white" stroke-width="14" stroke-linecap="round"/>
<path d="M479.85 24.8203C473.018 47.8809 478.031 78.6968 478.031 102.648C478.031 113.699 478.031 124.75 478.031 135.801" stroke="white" stroke-width="14" stroke-linecap="round"/>
<path d="M485.309 77.5831C489.559 74.1827 495.548 75.0021 499.863 72.125" stroke="white" stroke-width="14" stroke-linecap="round"/>
<path d="M521.695 23C516.302 60.7517 514.418 97.7506 514.418 135.8" stroke="white" stroke-width="14" stroke-linecap="round"/>
<path d="M547.168 37.5596C547.168 62.0188 552.12 84.7689 556.871 108.717C557.913 113.969 560.708 119.053 561.622 124.08C562.63 129.628 561.235 129.441 564.452 124.08C569.951 114.914 573.76 105.482 577.288 95.3746C579.324 89.5429 584.695 82.1368 585.273 76.0693C585.878 69.7234 584.892 62.5759 587.598 56.5618C588.875 53.7245 588.702 45.0783 590.428 47.6671C595.311 54.992 595.53 72.2751 596.29 81.0219C597.174 91.1818 600.538 100.549 603.164 110.334C604.758 116.275 606.261 132.239 611.755 121.25C624.928 94.903 625.4 60.9346 625.4 32.1016" stroke="white" stroke-width="14" stroke-linecap="round"/>
<path d="M669.063 32.1016C669.063 63.7302 661.785 158.337 661.785 126.708" stroke="white" stroke-width="14" stroke-linecap="round"/>
<path d="M678.16 35.7344C683.762 60.243 687.523 84.9455 694.939 109.115C695.646 111.421 705.104 132.896 699.992 130.341" stroke="white" stroke-width="14" stroke-linecap="round"/>
<path d="M663.605 97.5977C672.334 96.3508 680.441 92.0474 689.076 90.3203" stroke="white" stroke-width="14" stroke-linecap="round"/>
<path d="M718.184 32.1016C722.529 52.8615 723.147 74.1818 729.908 94.4649C731.797 100.132 730.53 106.176 731.02 112.052C731.252 114.837 734.964 127.521 730.919 119.43" stroke="white" stroke-width="14" stroke-linecap="round"/>
<path d="M727.281 39.3805C733.336 33.8763 740.747 27.1258 748.204 33.0127C753.192 36.951 758.323 42.987 763.668 46.2536C772.486 51.6423 782.222 67.5643 786.41 76.7783C790.964 86.7967 786.949 99.3457 779.032 106.798C773.186 112.3 768.774 113.367 761.04 115.793C753.596 118.129 751.678 120.755 745.475 124.89" stroke="white" stroke-width="14" stroke-linecap="round"/>
</svg>
