<svg width="118" height="101" viewBox="0 0 118 101" fill="none" xmlns="http://www.w3.org/2000/svg">
<path d="M6.75681 5.33177C20.1934 4.58529 33.8876 5.33177 47.3443 5.33177C57.6831 5.33177 71.8228 7.95032 82.1129 7.95032C89.8505 7.95032 96.9486 8.35545 102.989 13.1874C105.747 15.3938 106.262 31.3267 106.262 34.8632C106.262 42.3309 109.185 51.5665 110.844 58.8666C112.717 67.1068 112.808 76.0325 112.808 84.4702C112.808 92.9031 94.4252 94.3625 87.7864 94.3625C70.4086 94.3625 53.8863 95.8564 36.1428 94.6534C32.545 94.4095 10.7199 94.9887 10.6846 94.0715C10.1767 80.8662 7.10315 67.5307 6.46586 54.2114C6.35575 51.9101 3.04191 5.53815 6.75681 5.33177Z" fill="white" stroke="black" stroke-width="10" stroke-linecap="round"/>
<path d="M18.5859 45.5007C22.3589 45.5007 27.294 43.4505 30.5118 41.3025C32.8638 39.7324 35.6471 39.6972 38.0586 38.2704C42.4151 35.6927 46.7083 34.5842 51.4752 33.0926C57.062 31.3444 62.5513 28.9823 67.78 26.6553C71.1631 25.1497 76.0839 23.0927 78.9139 20.7311C80.2219 19.6398 79.2328 27.9797 79.1469 28.6145C77.2316 42.7579 71.8971 56.4182 69.7832 70.1769C69.2983 73.3332 68.3136 72.8457 65.9632 72.3227C61.1233 71.2457 56.969 66.6481 51.7547 65.6988C47.7088 64.9622 54.0565 80.1786 44.1613 70.2702C40.6632 66.7675 36.2083 63.8326 33.6796 59.4015C31.2127 55.0787 25.4178 50.1806 21.1015 48.0196" stroke="black" stroke-width="5" stroke-linecap="round"/>
<path d="M78.5859 27.6328C76.2959 29.9491 74.3191 32.3902 72.5253 35.1117C69.1904 40.1717 62.5109 42.4593 59.192 47.4949C55.5807 52.9741 48.1173 56.8353 42.5859 59.6328" stroke="black" stroke-width="5" stroke-linecap="round"/>
</svg>
