<svg width="137" height="94" viewBox="0 0 137 94" fill="none" xmlns="http://www.w3.org/2000/svg">
<path d="M29.5628 10.6405C46.499 6.6293 64.9709 8.13328 82.4425 8.29887C93.8945 8.00601 103.076 3.25431 114.666 5.69435C117.662 6.32516 124.647 6.33306 125.795 10.3496C127.309 15.6491 128.31 21.5544 129.14 27.3701C130.325 35.6619 135.379 82.1949 121.939 82.9416C110.042 83.6025 98.4477 87.4084 86.589 86.8694C75.8258 86.3802 66.4901 87.5806 55.4574 88.1059C44.6045 88.6227 36.1777 88.1782 25.0531 86.8694C17.2771 85.9546 11.9604 87.8227 11.9604 79.6684V65.1936C11.9604 59.8456 11.2681 52.3567 9.34181 47.3002C7.63292 42.8144 8.70204 38.4787 7.74159 33.9165C6.83634 29.6166 3.58497 20.2755 5.70494 16.4595C6.67731 14.7092 17.5337 12.0683 19.5251 11.5134C22.8547 10.5854 26.2575 11.4234 29.5628 10.6405Z" fill="white"/>
<path d="M85.2798 8.3129C66.9818 8.3129 47.4188 6.41146 29.5628 10.6405C26.2575 11.4234 22.8547 10.5854 19.5251 11.5134C17.5337 12.0683 6.67731 14.7092 5.70494 16.4595C3.58497 20.2755 6.83634 29.6166 7.74159 33.9165C8.70204 38.4787 7.63292 42.8144 9.34181 47.3002C11.2681 52.3567 11.9604 59.8456 11.9604 65.1936C11.9604 70.0186 11.9604 74.8435 11.9604 79.6684C11.9604 87.8227 17.2771 85.9546 25.0531 86.8694C36.1777 88.1782 44.6045 88.6227 55.4574 88.1059C66.4901 87.5806 75.8258 86.3802 86.589 86.8694C98.4477 87.4084 110.042 83.6025 121.939 82.9416C135.379 82.1949 130.325 35.6619 129.14 27.3701C128.31 21.5544 127.309 15.6491 125.795 10.3496C124.647 6.33306 117.662 6.32516 114.666 5.69435C102.71 3.17735 93.3178 8.3129 81.3519 8.3129" stroke="black" stroke-width="10" stroke-linecap="round"/>
<path d="M57.2969 28.9922C60.8943 40.4896 69.3987 48.3115 75.4105 58.1241C76.7457 60.3037 78.9896 62.1386 80.6648 64.0616C82.061 65.6644 83.4175 68.0483 85.2969 68.9922" stroke="black" stroke-width="5" stroke-linecap="round"/>
<path d="M82.2969 18.9922C78.3202 22.9922 76.8373 29.6336 73.7209 34.3356C68.535 42.1601 62.7857 49.4378 58.1155 57.6336C54.9747 63.1455 54.0112 69.5316 51.2969 74.9922" stroke="black" stroke-width="5" stroke-linecap="round"/>
</svg>
