<svg width="216" height="150" viewBox="0 0 216 150" fill="none" xmlns="http://www.w3.org/2000/svg">
<path d="M29.0597 55.623C39.067 52.049 45.7041 45.1913 57.0894 44.1563C59.3727 39.5899 72.4953 42.1159 77.4747 39.6262C90.1506 33.2883 103.659 27.9339 117.113 22.3554C132.292 16.0614 149.542 11.8434 164.112 5.36765C174.412 0.789972 174.348 10.1203 181.949 14.1446C193.442 20.229 201.951 36.8241 209.413 47.2707C218.152 59.505 201.139 73.0083 193.558 78.9812C187.368 83.8578 183.764 87.0363 177.136 91.2973C172.417 94.3307 170.183 93.4908 165.245 95.6858C152.657 101.28 138.352 104.637 126.031 111.824C110.618 120.815 23.9634 172.249 23.9634 129.52C23.9634 122.758 19.4844 113.291 15.1864 108.993C6.50955 100.316 10.5099 78.5478 4.85215 68.3638C-0.0386143 59.5604 22.2135 58.0681 29.0597 55.623Z" fill="black" stroke="black" stroke-width="7" stroke-linecap="round"/>
<path d="M58.4102 77.0078C63.8667 92.2862 67.3312 104.064 67.3312 119.829" stroke="white" stroke-width="7" stroke-linecap="round"/>
<path d="M65.5469 87.7123C68.1689 77.2243 76.1601 69.1101 86.9574 74.8263C94.7286 78.9405 75.1605 102.488 83.9837 99.0123C88.3705 97.2841 105.128 84.8834 107.971 91.2807C109.399 94.4936 107.265 101.824 104.403 103.77C98.417 107.841 93.0807 112.177 86.9574 116.26" stroke="white" stroke-width="7" stroke-linecap="round"/>
<path d="M115.504 66.3009C120.167 73.5867 120.115 77.2208 120.956 85.6299C121.354 89.6126 127.691 91.3839 130.571 88.5044C138.369 80.706 139.356 68.1784 133.346 59.1641" stroke="white" stroke-width="7" stroke-linecap="round"/>
<path d="M151.188 50.2448C151.837 56.0935 156.527 70.2573 164.47 67.9878C166.212 67.4901 165.461 63.2434 165.461 61.9413C165.461 54.7384 165.461 33.1296 165.461 40.3325C165.461 57.2597 167.245 74.173 167.245 91.2817" stroke="white" stroke-width="7" stroke-linecap="round"/>
</svg>
