<svg width="418" height="478" viewBox="0 0 418 478" fill="none" xmlns="http://www.w3.org/2000/svg">
<path d="M6 142.867C6.29905 166.193 9.12089 186.308 17.052 208.118C21.0308 219.06 24.0901 231.63 25.0978 243.219C26.4657 258.95 31.4637 275.072 31.4637 290.875" stroke="black" stroke-width="11" stroke-linecap="round"/>
<path d="M13.9609 149.241C28.5935 134.609 41.5726 142.665 52.7754 156.226C65.1151 171.164 45.5674 182.131 42.6076 196.19C42.3623 197.356 38.0146 207.579 38.1868 207.773C40.349 210.205 44.2692 208.8 46.5863 210.602C49.794 213.097 53.6999 215.151 56.5773 218.029C74.4543 235.906 84.0525 258.634 96.7181 279.743" stroke="black" stroke-width="11" stroke-linecap="round"/>
<path d="M122.18 217.668C133.141 209.995 153.301 191.517 134.293 182.744C127.681 179.692 114.924 177.439 109.006 183.009C104.707 187.055 106.056 199.361 105.469 204.759C104.716 211.694 105.316 217.951 106.265 224.83C108.304 239.613 111.912 254.272 128.723 254.272C148.163 254.272 157.025 246.566 166.742 231.991" stroke="black" stroke-width="11" stroke-linecap="round"/>
<path d="M163.559 106.266C165.698 129.324 172.417 149.819 176.644 172.224C177.4 176.228 179.247 178.913 179.562 183.011C180.172 190.939 179.769 202.08 183.364 209.27C187.037 216.617 204.928 208.138 208.12 201.755" stroke="black" stroke-width="11" stroke-linecap="round"/>
<path d="M152.414 158.783C159.352 157.395 167.424 148.857 173.192 144.902C176.197 142.841 177.551 140.971 179.469 138.094" stroke="black" stroke-width="11" stroke-linecap="round"/>
<path d="M225.624 149.238C220.231 160.697 226.883 171.247 231.99 180.183C240.665 195.365 255.604 185.757 264.703 177.001C272.459 169.537 276.652 140.16 269.478 130.936C264.85 124.986 254.758 131.118 248.7 127.753C243.709 124.98 240.729 131.006 239.947 134.915" stroke="black" stroke-width="11" stroke-linecap="round"/>
<path d="M278.141 131.727C278.141 139.435 278.724 157.594 289.635 157.19C297.12 156.913 301.839 150.868 308.379 149.233" stroke="black" stroke-width="11" stroke-linecap="round"/>
<path d="M292.465 99.898C297.09 96.2638 302.418 94.5148 307.849 92.5595C312.259 90.9721 322.318 82.5701 320.758 86.9893C316.979 97.6959 308.389 116.852 317.929 126.953C323.833 133.205 330.11 134.642 339.502 134.911C348.527 135.169 348.642 131.039 356.124 128.545" stroke="black" stroke-width="11" stroke-linecap="round"/>
<path d="M381.589 6C390.773 23.8286 400.77 40.6898 404.223 60.8178C404.333 61.4541 413.136 101.232 411.739 101.931C410.346 102.628 403.247 85.7908 401.925 84.3363C398.814 80.915 391.657 82.3912 387.69 82.3912C379.906 82.3912 377.184 82.8592 372.129 88.7571C368.738 92.7133 370.155 103.478 373.632 107.148C380.531 114.431 400.063 116.094 403.87 104.672" stroke="black" stroke-width="11" stroke-linecap="round"/>
<path d="M122.184 368.863C114.397 367.998 113.907 366.849 108.657 374.433C101.315 385.037 100.4 403.296 101.583 415.723C103.075 431.389 111.088 441.774 122.98 451.531C136.805 462.875 144.613 470.356 162.325 472.221C176.579 473.721 191.687 457.274 193.801 444.37C196.598 427.294 200.167 408.818 200.167 391.497C200.167 375.933 197.016 362.378 194.155 347.289C192.798 340.137 191.308 333.025 189.822 325.893C187.785 316.113 188.8 323.754 190.087 329.252C194.751 349.164 202.533 368.336 207.505 388.226C211.237 403.154 216.439 417.798 220.856 432.522" stroke="black" stroke-width="11" stroke-linecap="round"/>
<path d="M216.078 381.588C222.511 378.282 246.316 370.494 246.316 360.898" stroke="black" stroke-width="11" stroke-linecap="round"/>
<path d="M241.542 305.203C238.596 321.034 240.409 336.07 244.106 351.621C247.043 363.978 254.273 379.04 254.273 391.939C254.273 398 258.632 406.312 260.639 411.833" stroke="black" stroke-width="11" stroke-linecap="round"/>
<path d="M276.551 295.648C282.888 317.584 286.902 340.548 294.234 362.137C296.625 369.179 300.223 376.012 302.015 383.18" stroke="black" stroke-width="11" stroke-linecap="round"/>
<path d="M286.102 298.828C289.965 301.312 295.216 300.771 298.833 303.603C303.954 307.61 308.438 312.224 313.864 315.981C322.556 321.998 331.128 330.79 340.212 335.786C349.422 340.851 355.463 351.811 364.084 356.122" stroke="black" stroke-width="11" stroke-linecap="round"/>
<path d="M287.695 351.35C296.13 343.952 312.514 334.188 316.342 322.703" stroke="black" stroke-width="11" stroke-linecap="round"/>
<path d="M348.164 259.047C358.892 276.641 370.603 293.041 380.613 311.124C384.611 318.347 393.421 326.383 395.909 333.847" stroke="black" stroke-width="11" stroke-linecap="round"/>
<path d="M352.941 252.677C369.168 244.81 382.321 253.653 394.674 265.055C398.885 268.943 402.281 270.859 405.372 275.754C408.055 280.001 406.403 284.8 408.29 289.281C411.474 296.844 411.179 327.801 402.277 332.251" stroke="black" stroke-width="11" stroke-linecap="round"/>
</svg>
